<?xml version="1.0" encoding="UTF-8" standalone="no"?>
<!-- Created with Inkscape (http://www.inkscape.org/) -->

<svg
   width="55.436138mm"
   height="54.502155mm"
   viewBox="0 0 55.436138 54.502155"
   version="1.1"
   id="svg1"
   xml:space="preserve"
   inkscape:version="1.3.2 (091e20e, 2023-11-25, custom)"
   sodipodi:docname="reactv.js.org.svg"
   xmlns:inkscape="http://www.inkscape.org/namespaces/inkscape"
   xmlns:sodipodi="http://sodipodi.sourceforge.net/DTD/sodipodi-0.dtd"
   xmlns="http://www.w3.org/2000/svg"
   xmlns:svg="http://www.w3.org/2000/svg"><sodipodi:namedview
     id="namedview1"
     pagecolor="#ffffff"
     bordercolor="#000000"
     borderopacity="0.25"
     inkscape:showpageshadow="2"
     inkscape:pageopacity="0.0"
     inkscape:pagecheckerboard="0"
     inkscape:deskcolor="#d1d1d1"
     inkscape:document-units="mm"
     inkscape:zoom="0.93436966"
     inkscape:cx="467.15986"
     inkscape:cy="654.4519"
     inkscape:window-width="1680"
     inkscape:window-height="987"
     inkscape:window-x="-8"
     inkscape:window-y="-8"
     inkscape:window-maximized="1"
     inkscape:current-layer="layer1"
     showguides="true"><sodipodi:guide
       position="95.764037,63.506276"
       orientation="0,-1"
       id="guide59"
       inkscape:locked="false" /><inkscape:page
       x="5.2972687e-06"
       y="-5.2138296e-07"
       width="55.436138"
       height="54.502155"
       id="page1"
       margin="0"
       bleed="0" /></sodipodi:namedview><defs
     id="defs1"><filter
       style="color-interpolation-filters:sRGB"
       inkscape:label="Drop Shadow"
       id="filter48"
       x="-1.7644024"
       y="-1.725251"
       width="4.5891883"
       height="4.9912332"><feFlood
         result="flood"
         in="SourceGraphic"
         flood-opacity="0.498039"
         flood-color="rgb(0,0,0)"
         id="feFlood47" /><feGaussianBlur
         result="blur"
         in="SourceGraphic"
         stdDeviation="3.000000"
         id="feGaussianBlur47" /><feOffset
         result="offset"
         in="blur"
         dx="-2.100000"
         dy="4.300000"
         id="feOffset47" /><feComposite
         result="comp1"
         operator="in"
         in="flood"
         in2="offset"
         id="feComposite47" /><feComposite
         result="fbSourceGraphic"
         operator="over"
         in="SourceGraphic"
         in2="comp1"
         id="feComposite48" /><feColorMatrix
         result="fbSourceGraphicAlpha"
         in="fbSourceGraphic"
         values="0 0 0 -1 0 0 0 0 -1 0 0 0 0 -1 0 0 0 0 1 0"
         id="feColorMatrix48" /><feFlood
         id="feFlood48"
         result="flood"
         in="fbSourceGraphic"
         flood-opacity="0.498039"
         flood-color="rgb(0,0,0)" /><feGaussianBlur
         id="feGaussianBlur48"
         result="blur"
         in="fbSourceGraphic"
         stdDeviation="8.300000" /><feOffset
         id="feOffset48"
         result="offset"
         in="blur"
         dx="3.100000"
         dy="4.200000" /><feComposite
         id="feComposite49"
         result="comp1"
         operator="in"
         in="flood"
         in2="offset" /><feComposite
         id="feComposite50"
         result="comp2"
         operator="over"
         in="fbSourceGraphic"
         in2="comp1" /></filter></defs><g
     inkscape:label="Layer 1"
     inkscape:groupmode="layer"
     id="layer1"
     transform="translate(11.663234,10.640725)"><g
       id="g51"
       transform="matrix(0.40295609,0,0,0.40295609,-20.347861,-37.78802)"><g
         id="g50"><rect
           style="fill:#fff266;fill-opacity:1;stroke-width:0.264583"
           id="rect1"
           width="108.25233"
           height="108.25233"
           x="50.873837"
           y="94.37384" /><g
           id="g20"
           transform="matrix(1.1279658,0,0,1.1279658,-14.806014,36.867195)"><path
             style="fill:#f9f9f9;fill-opacity:1;stroke-width:0.264583"
             d="m 97.63712,90.579013 c 0,1.497174 0,21.388197 0,21.388197 l 3.52905,6.95116 c 0,0 8.23446,-0.10694 9.08998,-1.28329 0.85553,-1.17635 13.26069,-6.20257 13.26069,-6.20257 l 8.55528,-4.59847 c 0,0 2.56658,-4.81234 2.67352,-5.56093 0.10694,-0.74858 -1.06941,-18.928552 -1.06941,-18.928552 l -1.39023,-9.196925 -14.65092,-0.106941 -9.94551,0.320823 -3.84987,7.058107 -3.10129,2.45964 -4.705406,2.673525 z"
             id="path3" /><g
             id="g2"><path
               style="fill:#f9f9f9;fill-opacity:1;stroke-width:0.264583"
               d="M 80.205738,90.899836 82.4515,87.905488 c 0,0 5.026226,-1.711055 6.309516,-1.817997 1.283293,-0.106939 7.37893,4.812345 7.37893,4.812345 0,0 0.320823,11.228804 0.427762,13.153744 0.106942,1.92494 -4.170698,6.5234 -4.170698,6.5234 l -6.416458,1.28329 -3.529052,-2.3527 -1.283293,-1.818 -2.031878,-0.74859 z"
               id="path2" /><path
               style="fill:#493083;fill-opacity:1"
               d="m 92.488097,119.2034 c -11.477561,-5.0943 -11.596053,-5.15517 -11.827255,-6.07635 -0.111711,-0.4451 -0.155341,-1.85646 -0.09696,-3.13636 l 0.106155,-2.3271 2.998611,1.16549 c 3.525635,1.37033 4.91065,1.47128 6.654746,0.48505 2.889943,-1.63417 4.457755,-5.28738 4.457755,-10.387144 0,-6.58944 -2.76464,-11.18306 -6.730446,-11.18306 -1.310717,0 -7.204277,2.1162 -7.204277,2.58683 0,0.16828 0.225945,0.30595 0.502099,0.30595 0.276155,0 0.969405,0.39321 1.540556,0.8738 2.774268,2.3344 3.57695,8.540374 1.609498,12.443914 -1.188896,2.35884 -2.390905,3.3334 -4.111378,3.3334 -2.677212,0 -4.838529,-3.10035 -5.10998,-7.330144 -0.295772,-4.60875 1.31004,-8.40292 3.962291,-9.36198 l 1.254136,-0.4535 v -5.56545 c 0,-6.72565 -0.294632,-6.37197 5.801326,-6.96398 2.317604,-0.22508 4.421042,-0.58121 4.674306,-0.7914 0.334964,-0.27799 0.46048,-1.61478 0.46048,-4.90426 0,-2.48715 0.138803,-4.60788 0.30845,-4.71273 0.169648,-0.10485 5.572853,-0.20088 12.00713,-0.21342 l 11.69867,-0.0228 8.01301,2.1551 c 4.40716,1.1853 8.83681,2.38485 9.84366,2.66566 1.33645,0.37275 2.05071,0.81911 2.64584,1.65348 l 0.81519,1.14291 v 16.07729 16.077304 l -0.92674,1.40025 c -0.55006,0.83112 -1.48207,1.64159 -2.29305,1.99403 -1.70893,0.74267 -27.28305,11.22232 -29.3311,12.01918 -0.82855,0.32237 -2.01917,0.58318 -2.64584,0.5796 -0.66662,-0.004 -4.432874,-1.46834 -9.076887,-3.52957 z m 18.546743,-5.81904 c 16.38515,-6.25686 19.55974,-7.63518 20.29817,-8.81293 0.62001,-0.98886 0.66365,-1.95955 0.66488,-14.788894 10e-4,-12.28253 -0.0603,-13.79859 -0.58252,-14.37569 -0.53899,-0.59558 -1.33851,-0.64514 -10.40695,-0.64514 h -9.8231 v 4.25653 c 0,2.34108 -0.15753,4.55087 -0.35007,4.91063 -0.49071,0.9169 -2.09331,1.33534 -6.17632,1.61263 -1.94028,0.13178 -3.72621,0.39904 -3.96875,0.59393 -0.34006,0.27325 -0.44097,3.71909 -0.44097,15.057264 0,15.19356 0.0325,15.54958 1.41938,15.54958 0.31499,0 4.52981,-1.51106 9.36625,-3.35791 z m 4.38381,-6.8015 c -1.1375,-0.62248 -2.4976,-2.32243 -2.10727,-2.6338 0.0918,-0.0733 2.46887,-0.77474 5.28227,-1.55883 5.75152,-1.60294 5.98976,-1.54143 4.41799,1.1406 -1.76977,3.01988 -5.1609,4.38295 -7.59299,3.05203 z m -7.62419,-6.41412 c -2.89272,-1.168794 -2.99424,-5.629104 -0.18817,-8.267644 0.85249,-0.80159 1.50981,-1.06314 2.97779,-1.18488 1.61724,-0.13411 2.0254,-0.0344 2.88425,0.70431 0.82136,0.7065 1.02493,1.20271 1.13736,2.77238 0.18214,2.54279 -0.8535,4.41635 -3.0556,5.52783 -1.65882,0.837264 -2.53387,0.941654 -3.75563,0.448004 z m 15.14876,-3.712434 c -0.58793,-0.24721 -1.17211,-0.71823 -1.29816,-1.04672 -0.7089,-1.84738 0.28425,-4.22843 2.07597,-4.97706 1.66023,-0.69369 2.18036,-0.63404 3.17894,0.36453 2.40862,2.40863 -0.7939,6.98913 -3.95675,5.65925 z"
               id="path1"
               sodipodi:nodetypes="ssscssssssssssscsssssscssscccssscssssccscsssssssscsssssssssssssss" /></g></g><g
           id="g19"
           transform="matrix(0.87183514,0,0,0.87183514,14.416891,68.600951)"><g
             id="text3"
             style="font-size:23.3823px;font-family:'Eccentric Std';-inkscape-font-specification:'Eccentric Std';letter-spacing:-1.91807px;fill:#493083;stroke-width:0.274011"
             aria-label="reactv"><path
               style="font-family:Rubik;-inkscape-font-specification:Rubik"
               d="m 82.880007,129.36566 q 0.257205,0 0.444263,0.18706 0.187059,0.18706 0.187059,0.44427 v 0.74823 q 0,0.25721 -0.187059,0.44426 -0.187058,0.18706 -0.444263,0.18706 h -1.356174 q -1.309408,0 -2.010877,0.70147 -0.678087,0.67809 -0.678087,1.9875 v 6.82763 q 0,0.2572 -0.187058,0.44426 -0.187059,0.18706 -0.444264,0.18706 h -0.865145 q -0.257205,0 -0.444264,-0.18706 -0.187058,-0.18706 -0.187058,-0.44426 v -10.89615 q 0,-0.25721 0.187058,-0.44427 0.187059,-0.18706 0.444264,-0.18706 h 0.865145 q 0.257205,0 0.444264,0.18706 0.187058,0.18706 0.187058,0.44427 v 0.72485 q 0.467646,-0.70147 1.12235,-1.02882 0.654705,-0.32736 1.706908,-0.32736 z m 5.54089,-0.23382 q 2.501906,0 3.951608,1.59 1.449703,1.58999 1.449703,4.32572 v 0.63132 q 0,0.25721 -0.187059,0.44427 -0.187058,0.18706 -0.444263,0.18706 h -8.043511 v 0.14029 q 0.04676,1.54323 0.935292,2.43176 0.911909,0.86515 2.33823,0.86515 1.169115,0 1.800437,-0.30397 0.654704,-0.30397 1.169115,-0.86515 0.187058,-0.18706 0.327352,-0.25721 0.163676,-0.0701 0.420881,-0.0701 h 0.701469 q 0.280588,0 0.467646,0.18706 0.187059,0.18705 0.163676,0.44426 -0.09353,0.63132 -0.701469,1.30941 -0.584557,0.6547 -1.706908,1.12235 -1.098968,0.44426 -2.642199,0.44426 -1.496468,0 -2.665583,-0.67808 -1.169115,-0.70147 -1.870584,-1.91735 -0.678086,-1.21588 -0.81838,-2.73573 -0.04676,-0.70147 -0.04676,-1.07559 0,-0.37411 0.04676,-1.07558 0.140294,-1.44971 0.81838,-2.61882 0.701469,-1.16912 1.847202,-1.8472 1.169115,-0.67809 2.688965,-0.67809 z m 3.296904,5.21425 v -0.0701 q 0,-1.42632 -0.91191,-2.26809 -0.888527,-0.86514 -2.384994,-0.86514 -1.356174,0 -2.314848,0.86514 -0.935292,0.86515 -0.958674,2.26809 v 0.0701 z m 10.240709,-0.51441 v -0.30397 q 0,-1.14573 -0.77162,-1.75367 -0.74823,-0.63132 -1.964112,-0.63132 -0.935292,0 -1.473085,0.32735 -0.514411,0.30397 -0.982057,0.93529 -0.140293,0.18706 -0.303969,0.25721 -0.163677,0.0702 -0.444264,0.0702 h -0.701469 q -0.257205,0 -0.467646,-0.18706 -0.187059,-0.18706 -0.163676,-0.44427 0.07015,-0.70147 0.678086,-1.37955 0.631323,-0.70147 1.660144,-1.14574 1.028821,-0.44426 2.197936,-0.44426 2.174552,0 3.507342,1.21588 1.35618,1.21588 1.35618,3.41382 v 7.1316 q 0,0.2572 -0.18706,0.44426 -0.18706,0.18706 -0.44427,0.18706 h -0.86514 q -0.25721,0 -0.44426,-0.18706 -0.18706,-0.18706 -0.18706,-0.44426 v -0.95868 q -0.37412,0.84177 -1.59,1.33279 -1.215879,0.49103 -2.431759,0.49103 -1.192497,0 -2.127789,-0.42088 -0.935292,-0.44426 -1.449702,-1.1925 -0.491029,-0.74823 -0.491029,-1.68352 0,-1.75367 1.309409,-2.73573 1.309409,-1.00544 3.483963,-1.35617 z m 0,1.87059 -2.759114,0.44426 q -1.51985,0.23382 -2.361613,0.77162 -0.841762,0.51441 -0.841762,1.30941 0,0.58455 0.537792,1.0522 0.537793,0.46765 1.636761,0.46765 1.683526,0 2.735726,-0.95868 1.05221,-0.95867 1.05221,-2.50191 z m 8.5338,4.04514 q 2.33823,0 3.15662,-1.82382 0.16367,-0.35074 0.32735,-0.49103 0.16367,-0.1403 0.44426,-0.1403 h 0.70147 q 0.25721,0 0.44426,0.18706 0.18706,0.16368 0.18706,0.3975 0,0.795 -0.63132,1.70691 -0.63132,0.91191 -1.82382,1.54323 -1.1925,0.63132 -2.80588,0.63132 -1.66014,0 -2.87602,-0.70147 -1.21588,-0.70147 -1.87058,-1.91734 -0.65471,-1.23927 -0.72485,-2.75912 -0.0234,-0.28058 -0.0234,-1.07558 0,-0.56118 0.0234,-0.795 0.21044,-2.38499 1.61338,-3.88146 1.40293,-1.49647 3.85807,-1.49647 1.61338,0 2.7825,0.63132 1.1925,0.60794 1.80044,1.51985 0.63132,0.88853 0.67808,1.68353 0.0234,0.2572 -0.18706,0.44426 -0.18705,0.18706 -0.44426,0.18706 h -0.70147 q -0.28059,0 -0.44426,-0.14029 -0.16368,-0.1403 -0.32735,-0.49103 -0.81839,-1.82382 -3.15662,-1.82382 -1.28602,0 -2.2447,0.86514 -0.95867,0.86515 -1.09896,2.61882 -0.0234,0.25721 -0.0234,0.84176 0,0.5378 0.0234,0.795 0.16367,1.75367 1.09896,2.61882 0.95868,0.86515 2.2447,0.86515 z"
               id="path18" /><path
               style="font-weight:bold;font-family:Rubik;-inkscape-font-specification:'Rubik Bold'"
               d="m 121.83202,136.77785 q 0,1.12235 1.00544,1.12235 h 1.87058 q 0.25721,0 0.44426,0.18706 0.18706,0.18706 0.18706,0.44427 v 2.36161 q 0,0.2572 -0.18706,0.44426 -0.18705,0.18706 -0.44426,0.18706 h -2.22132 q -2.22132,0 -3.55411,-1.23926 -1.30941,-1.23926 -1.30941,-3.36705 v -3.92823 h -1.73029 q -0.2572,0 -0.44426,-0.18706 -0.18706,-0.18706 -0.18706,-0.44426 v -2.36161 q 0,-0.25721 0.18706,-0.44427 0.18706,-0.18706 0.44426,-0.18706 h 1.73029 v -3.81131 q 0,-0.25721 0.18706,-0.44426 0.18706,-0.18706 0.44427,-0.18706 h 2.94616 q 0.25721,0 0.44427,0.18706 0.18706,0.18705 0.18706,0.44426 v 3.81131 h 2.6422 q 0.2572,0 0.44426,0.18706 0.18706,0.18706 0.18706,0.44427 v 2.36161 q 0,0.2572 -0.18706,0.44426 -0.18706,0.18706 -0.44426,0.18706 h -2.6422 z m 2.6415,-6.68733 q -0.0234,-0.0701 -0.0234,-0.16368 0,-0.23382 0.16368,-0.3975 0.16368,-0.16368 0.3975,-0.16368 h 2.99293 q 0.51441,0 0.77162,0.56118 l 2.57205,6.10278 2.57206,-6.10278 q 0.2572,-0.56118 0.77161,-0.56118 h 2.99294 q 0.23382,0 0.39749,0.16368 0.16368,0.16368 0.16368,0.3975 0,0.0935 -0.0234,0.16368 l -4.72323,10.84938 q -0.14029,0.28059 -0.30397,0.44427 -0.16367,0.14029 -0.46764,0.14029 h -2.75911 q -0.30397,0 -0.46765,-0.14029 -0.16368,-0.16368 -0.30397,-0.44427 z"
               id="path19" /></g><g
             id="text7"
             style="font-size:4.86736px;font-family:Rubik;-inkscape-font-specification:Rubik;letter-spacing:-0.399274px;fill:#160f28;fill-opacity:1;stroke-width:0.0570392"
             aria-label="JS.ORG"><path
               style="font-weight:bold;-inkscape-font-specification:'Rubik Bold';fill:#160f28;fill-opacity:1"
               d="m 126.27015,127.13768 q 0,0.41373 -0.19469,0.70577 -0.1947,0.28718 -0.52568,0.43806 -0.33098,0.14602 -0.7301,0.14602 -0.41373,0 -0.74471,-0.14115 -0.32611,-0.14115 -0.51594,-0.40399 -0.18496,-0.26284 -0.18983,-0.60355 0,-0.0438 0.0292,-0.073 0.0341,-0.0341 0.0779,-0.0341 h 0.62302 q 0.0876,0 0.11682,0.0292 0.0341,0.0243 0.0633,0.11195 0.0584,0.17036 0.18496,0.2531 0.12655,0.0827 0.35532,0.0827 0.27257,0 0.41372,-0.13629 0.14116,-0.14115 0.14116,-0.40399 v -1.35799 h -1.66464 q -0.0535,0 -0.0925,-0.0389 -0.0389,-0.0389 -0.0389,-0.0925 v -0.51594 q 0,-0.0535 0.0389,-0.0925 0.0389,-0.0389 0.0925,-0.0389 h 2.42881 q 0.0535,0 0.0925,0.0389 0.0389,0.0389 0.0389,0.0925 z m 2.94947,-1.25578 q 0,0.0438 -0.0341,0.0779 -0.0292,0.0292 -0.0682,0.0292 h -0.63762 q -0.0681,0 -0.10708,-0.0146 -0.0389,-0.0195 -0.0876,-0.0633 -0.01,-0.01 -0.0633,-0.0633 -0.0535,-0.0584 -0.17036,-0.10221 -0.11195,-0.0438 -0.26284,-0.0438 -0.20929,0 -0.34558,0.0584 -0.13142,0.0535 -0.13142,0.18983 0,0.0973 0.0828,0.15575 0.0827,0.0535 0.2531,0.0973 0.17523,0.0438 0.60355,0.13142 0.55002,0.11195 0.80799,0.35045 0.25797,0.2385 0.25797,0.68143 0,0.32125 -0.1947,0.56461 -0.18983,0.2385 -0.53541,0.36992 -0.34071,0.12655 -0.77391,0.12655 -0.41859,0 -0.75931,-0.14602 -0.34071,-0.14602 -0.53541,-0.37965 -0.19469,-0.23363 -0.20443,-0.48187 0,-0.0438 0.0292,-0.073 0.0341,-0.0341 0.073,-0.0341 h 0.63762 q 0.10708,0 0.18496,0.0681 0.0146,0.0146 0.0779,0.0876 0.0633,0.0682 0.18983,0.12656 0.13142,0.0535 0.30664,0.0535 0.60355,0 0.60355,-0.25797 0,-0.0827 -0.0876,-0.13629 -0.0827,-0.0584 -0.2385,-0.0973 -0.15575,-0.0389 -0.49647,-0.11195 l -0.21903,-0.0438 q -0.49647,-0.10708 -0.73011,-0.35532 -0.23363,-0.2531 -0.23363,-0.6717 0,-0.2823 0.17036,-0.5208 0.17036,-0.24337 0.48187,-0.38452 0.31638,-0.14603 0.72523,-0.14603 0.39426,0 0.72037,0.15089 0.32612,0.14602 0.51108,0.36992 0.18982,0.2239 0.19956,0.43806 z"
               id="path16" /><path
               d="m 129.82789,127.78991 q 0.0535,0 0.0925,0.0389 0.0389,0.0389 0.0389,0.0925 v 0.32611 q 0,0.0535 -0.0389,0.0925 -0.0389,0.0389 -0.0925,0.0389 h -0.32612 q -0.0535,0 -0.0925,-0.0389 -0.0389,-0.0389 -0.0389,-0.0925 v -0.32611 q 0,-0.0535 0.0389,-0.0925 0.0389,-0.0389 0.0925,-0.0389 z m 1.67422,-2.86688 q 0.41372,0 0.7155,0.17523 0.30178,0.17522 0.45753,0.477 0.16062,0.29691 0.17036,0.66683 0.01,0.29204 0.01,0.43319 0,0.14116 -0.01,0.4332 -0.0146,0.36992 -0.17523,0.6717 -0.15575,0.2969 -0.45753,0.47213 -0.29691,0.17522 -0.71063,0.17522 -0.41373,0 -0.7155,-0.17522 -0.29691,-0.17523 -0.45754,-0.47213 -0.15575,-0.30178 -0.17035,-0.6717 -0.005,-0.14602 -0.005,-0.4332 0,-0.28717 0.005,-0.43319 0.01,-0.36992 0.16549,-0.66683 0.16062,-0.30178 0.4624,-0.477 0.30177,-0.17523 0.7155,-0.17523 z m 0,0.43807 q -0.38939,0 -0.62789,0.22876 -0.2385,0.22877 -0.25311,0.67657 -0.005,0.14602 -0.005,0.40885 0,0.26284 0.005,0.40886 0.0146,0.4478 0.25311,0.67657 0.2385,0.22876 0.62789,0.22876 0.38939,0 0.62789,-0.22876 0.2385,-0.22877 0.2531,-0.67657 0.01,-0.29204 0.01,-0.40886 0,-0.11681 -0.01,-0.40885 -0.0146,-0.4478 -0.2531,-0.67657 -0.2385,-0.22876 -0.62789,-0.22876 z m 2.96407,-0.38939 q 0.51108,0 0.84206,0.2531 0.33098,0.24824 0.33098,0.75444 0,0.37966 -0.18983,0.61816 -0.18983,0.2385 -0.51107,0.34071 l 0.73497,1.28012 q 0.0146,0.0292 0.0146,0.0535 0,0.0438 -0.0341,0.0779 -0.0292,0.0292 -0.073,0.0292 h -0.2093 q -0.13628,0 -0.20929,-0.13142 l -0.70577,-1.24118 h -0.83719 v 1.24118 q 0,0.0535 -0.0389,0.0925 -0.0389,0.0389 -0.0925,0.0389 h -0.19956 q -0.0535,0 -0.0925,-0.0389 -0.0389,-0.0389 -0.0389,-0.0925 v -3.14431 q 0,-0.0535 0.0389,-0.0925 0.0389,-0.0389 0.0925,-0.0389 z m -0.0243,1.59649 q 0.73497,0 0.73497,-0.58895 0,-0.30177 -0.18496,-0.43319 -0.18496,-0.13629 -0.55001,-0.13629 h -0.82259 v 1.15843 z m 2.74991,-1.64517 q 0.41372,0 0.7155,0.15576 0.30178,0.15089 0.45753,0.37479 0.16063,0.21903 0.17036,0.40886 0.005,0.0438 -0.0292,0.0779 -0.0341,0.0292 -0.0779,0.0292 h -0.19956 q -0.11195,0 -0.14116,-0.0535 -0.14115,-0.27258 -0.34071,-0.41373 -0.1947,-0.14115 -0.55488,-0.14115 -0.40886,0 -0.66196,0.23363 -0.2531,0.22877 -0.26771,0.66196 -0.005,0.14602 -0.005,0.40399 0,0.25797 0.005,0.40399 0.0146,0.45754 0.26284,0.69117 0.2531,0.23363 0.66683,0.23363 0.42346,0 0.67656,-0.21903 0.2531,-0.2239 0.2531,-0.7009 v -0.13629 h -0.7009 q -0.0535,0 -0.0925,-0.0389 -0.0389,-0.0389 -0.0389,-0.0925 v -0.17523 q 0,-0.0535 0.0389,-0.0925 0.0389,-0.0389 0.0925,-0.0389 h 1.03189 q 0.0535,0 0.0925,0.0389 0.0389,0.0389 0.0389,0.0925 v 0.4624 q 0,0.38939 -0.16549,0.69603 -0.16549,0.30178 -0.48187,0.47214 -0.31151,0.17035 -0.7447,0.17035 -0.6717,0 -1.02215,-0.36992 -0.35045,-0.37478 -0.36992,-0.9686 -0.005,-0.14602 -0.005,-0.42833 0,-0.2823 0.005,-0.42833 0.0146,-0.37478 0.16549,-0.66682 0.15576,-0.29691 0.4624,-0.46727 0.31151,-0.17523 0.76418,-0.17523 z"
               id="path17"
               style="fill:#160f28;fill-opacity:1" /></g><path
             d="m 78.684474,126.13674 c 0.006,0.0662 0.009,0.13839 0.009,0.21662 0,0.0722 -0.003,0.1414 -0.009,0.20759 -0.02708,0.30687 -0.133878,0.55207 -0.320409,0.73559 -0.183521,0.18051 -0.43323,0.27077 -0.749126,0.27077 -0.315898,0 -0.56711,-0.0903 -0.753639,-0.27077 -0.183522,-0.18352 -0.288821,-0.42872 -0.315897,-0.73559 -0.003,-0.033 -0.0046,-0.10227 -0.0046,-0.20759 0,-0.11132 0.0016,-0.18352 0.0046,-0.21662 0.02407,-0.30686 0.12937,-0.55055 0.315897,-0.73107 0.186529,-0.18351 0.437741,-0.27528 0.753639,-0.27528 0.315896,0 0.567109,0.0917 0.753639,0.27528 0.186529,0.18052 0.291828,0.42421 0.315896,0.73107 z m -0.410665,0.0226 c -0.01805,-0.19254 -0.08273,-0.34748 -0.194051,-0.46481 -0.108307,-0.11733 -0.263247,-0.176 -0.464819,-0.176 -0.201573,0 -0.358016,0.0587 -0.469332,0.176 -0.108308,0.11733 -0.171487,0.27227 -0.189538,0.46481 -0.003,0.0361 -0.0046,0.1008 -0.0046,0.19406 0,0.0903 0.0016,0.15193 0.0046,0.18502 0.01805,0.19255 0.08123,0.34749 0.189538,0.46482 0.111316,0.11733 0.267759,0.176 0.469332,0.176 0.201572,0 0.356512,-0.0587 0.464819,-0.176 0.111316,-0.11733 0.176,-0.27227 0.194051,-0.46482 0.006,-0.0662 0.009,-0.12786 0.009,-0.18502 0,-0.0572 -0.003,-0.12184 -0.009,-0.19406 z m 1.024267,2.09846 c 0,0.033 -0.01203,0.0616 -0.03611,0.0857 -0.02407,0.0241 -0.05265,0.0361 -0.08574,0.0361 h -0.166973 c -0.03309,0 -0.06167,-0.012 -0.08575,-0.0361 -0.02406,-0.0241 -0.0361,-0.0527 -0.0361,-0.0857 v -2.9604 c 0,-0.033 0.01203,-0.0616 0.0361,-0.0857 0.02407,-0.0241 0.05265,-0.0361 0.08575,-0.0361 h 0.166973 c 0.03309,0 0.06167,0.012 0.08574,0.0361 0.02408,0.0241 0.03611,0.0527 0.03611,0.0857 v 0.1399 c 0.153435,-0.20458 0.386597,-0.30687 0.699485,-0.30687 0.186529,0 0.355008,0.0436 0.505436,0.13087 0.153435,0.0873 0.27528,0.2121 0.365537,0.37456 0.09327,0.16246 0.14441,0.35201 0.153435,0.56862 0.003,0.0301 0.0046,0.0782 0.0046,0.14441 0,0.0692 -0.0015,0.11884 -0.0046,0.14892 -0.009,0.21661 -0.06017,0.40616 -0.153435,0.56861 -0.09025,0.15946 -0.210599,0.2828 -0.361025,0.37005 -0.150428,0.0873 -0.32041,0.13088 -0.509948,0.13088 -0.168478,0 -0.311384,-0.0286 -0.428717,-0.0857 -0.114325,-0.0602 -0.20458,-0.13391 -0.270768,-0.22113 z m 0,-1.74646 c 0.009,0.21061 0.0722,0.37457 0.189538,0.4919 0.117332,0.11733 0.272273,0.176 0.46482,0.176 0.195554,0 0.350494,-0.0632 0.464819,-0.18954 0.117332,-0.12635 0.182016,-0.29784 0.194051,-0.51445 0.003,-0.0301 0.0046,-0.0722 0.0046,-0.12636 0,-0.0542 -0.0016,-0.0962 -0.0046,-0.12636 -0.01203,-0.21661 -0.07672,-0.38811 -0.194051,-0.51447 -0.114325,-0.12636 -0.269265,-0.18953 -0.464819,-0.18953 -0.18653,0 -0.339966,0.0587 -0.460307,0.176 -0.120341,0.11433 -0.185026,0.26776 -0.194051,0.46031 l -0.0046,0.17599 z m 2.842929,-1.38091 c 0.321914,0 0.576135,0.10229 0.762665,0.30687 0.186529,0.20457 0.279794,0.48287 0.279794,0.83487 v 0.12184 c 0,0.033 -0.01203,0.0616 -0.03611,0.0857 -0.02406,0.0241 -0.05264,0.0361 -0.08574,0.0361 h -1.552406 v 0.0271 c 0.006,0.19857 0.06618,0.35501 0.180512,0.46934 0.117333,0.11131 0.26776,0.16697 0.451281,0.16697 0.150427,0 0.266256,-0.0196 0.347487,-0.0587 0.08424,-0.0391 0.159452,-0.0948 0.22564,-0.16698 0.02407,-0.0241 0.04514,-0.0406 0.06318,-0.0496 0.02106,-0.009 0.04814,-0.0136 0.08123,-0.0136 h 0.135385 c 0.03611,0 0.06619,0.012 0.09025,0.0361 0.02407,0.0241 0.03461,0.0527 0.03159,0.0857 -0.01203,0.0812 -0.05716,0.16546 -0.135385,0.25271 -0.07522,0.0843 -0.185024,0.15644 -0.329434,0.21662 -0.141402,0.0572 -0.311385,0.0857 -0.509948,0.0857 -0.192547,0 -0.364034,-0.0436 -0.51446,-0.13087 -0.150428,-0.0903 -0.270769,-0.2136 -0.361025,-0.37005 -0.08725,-0.15645 -0.139898,-0.33245 -0.157948,-0.528 -0.006,-0.0903 -0.009,-0.15945 -0.009,-0.20759 0,-0.0482 0.003,-0.11731 0.009,-0.20758 0.01805,-0.18654 0.0707,-0.35502 0.157948,-0.50544 0.09025,-0.15043 0.209093,-0.26927 0.356512,-0.35652 0.150427,-0.0872 0.323418,-0.13086 0.518973,-0.13086 z m 0.636306,1.00635 v -0.0136 c 0,-0.18352 -0.05867,-0.32944 -0.175999,-0.43775 -0.114325,-0.11131 -0.267761,-0.16697 -0.460307,-0.16697 -0.174496,0 -0.323418,0.0557 -0.446768,0.16697 -0.120341,0.11132 -0.182017,0.25723 -0.185025,0.43775 v 0.0136 z m 2.666928,1.26359 c 0,0.033 -0.01203,0.0616 -0.03611,0.0857 -0.02407,0.0241 -0.05265,0.0361 -0.08574,0.0361 h -0.166973 c -0.03309,0 -0.06167,-0.012 -0.08575,-0.0361 -0.02407,-0.0241 -0.03611,-0.0527 -0.03611,-0.0857 v -1.19138 c 0,-0.22565 -0.05566,-0.39713 -0.166974,-0.51446 -0.111316,-0.11733 -0.266256,-0.176 -0.46482,-0.176 -0.195555,0 -0.350494,0.0587 -0.464819,0.176 -0.111316,0.11733 -0.166974,0.28881 -0.166974,0.51446 v 1.19138 c 0,0.033 -0.01203,0.0616 -0.03611,0.0857 -0.02408,0.0241 -0.05265,0.0361 -0.08575,0.0361 H 83.48115 c -0.03309,0 -0.06167,-0.012 -0.08574,-0.0361 -0.02407,-0.0241 -0.03611,-0.0527 -0.03611,-0.0857 v -2.10297 c 0,-0.033 0.01203,-0.0616 0.03611,-0.0857 0.02407,-0.0241 0.05264,-0.0361 0.08574,-0.0361 h 0.166974 c 0.03309,0 0.06167,0.012 0.08575,0.0361 0.02407,0.0241 0.03611,0.0527 0.03611,0.0857 v 0.1399 c 0.06619,-0.0873 0.156444,-0.15945 0.270769,-0.21662 0.117332,-0.0602 0.260238,-0.0903 0.428717,-0.0903 0.189538,0 0.358015,0.0406 0.505434,0.12185 0.147418,0.0812 0.261743,0.19856 0.342974,0.352 0.08424,0.15042 0.126357,0.32943 0.126359,0.53702 z m 2.310138,-0.92062 c -0.439248,-0.0933 -0.65887,-0.31739 -0.65887,-0.67241 0,-0.12334 0.03309,-0.23616 0.09928,-0.33845 0.06619,-0.1023 0.163966,-0.18352 0.293333,-0.24369 0.132376,-0.0632 0.293333,-0.0948 0.482871,-0.0948 0.186529,0 0.347486,0.027 0.48287,0.0812 0.135385,0.0542 0.237674,0.12188 0.306871,0.20307 0.0722,0.0812 0.108308,0.15946 0.108308,0.23467 0,0.0301 -0.01203,0.0572 -0.03611,0.0812 -0.02407,0.021 -0.05265,0.0316 -0.08574,0.0316 h -0.148923 c -0.05716,0 -0.102287,-0.021 -0.135384,-0.0632 -0.09327,-0.12035 -0.25723,-0.18052 -0.491896,-0.18052 -0.138394,0 -0.251213,0.0256 -0.338461,0.0767 -0.08424,0.0512 -0.126358,0.12185 -0.126358,0.2121 0,0.0752 0.02106,0.13238 0.06318,0.17149 0.04211,0.039 0.105296,0.0706 0.189538,0.0948 0.08424,0.0241 0.233161,0.0602 0.446768,0.1083 0.264751,0.0572 0.452786,0.14441 0.564102,0.26175 0.111315,0.11733 0.166973,0.26023 0.166973,0.42872 0,0.12334 -0.03911,0.23767 -0.117333,0.34297 -0.07522,0.1053 -0.185025,0.19104 -0.329435,0.25723 -0.141402,0.0632 -0.306871,0.0947 -0.496409,0.0947 -0.18653,0 -0.351999,-0.0286 -0.496409,-0.0857 -0.141402,-0.0602 -0.251213,-0.13239 -0.329435,-0.21661 -0.07822,-0.0843 -0.117334,-0.16397 -0.117334,-0.23918 0,-0.0301 0.01203,-0.0557 0.03611,-0.0767 0.02407,-0.0241 0.05265,-0.0361 0.08575,-0.0361 h 0.16246 c 0.02708,0 0.05114,0.003 0.0722,0.009 0.02106,0.006 0.04062,0.0224 0.05867,0.0496 0.09928,0.13839 0.275281,0.20758 0.527999,0.20758 0.1414,0 0.264751,-0.0286 0.37005,-0.0857 0.108307,-0.0602 0.162461,-0.13391 0.162461,-0.22113 0,-0.0722 -0.02708,-0.12937 -0.08123,-0.17149 -0.05114,-0.0451 -0.12636,-0.0813 -0.22564,-0.10831 -0.09928,-0.0301 -0.254222,-0.0677 -0.46482,-0.11282 z m 3.379958,-0.34297 c 0.006,0.0662 0.009,0.13839 0.009,0.21662 0,0.0722 -0.003,0.1414 -0.009,0.20759 -0.02708,0.30687 -0.133879,0.55207 -0.320409,0.73559 -0.183522,0.18051 -0.433231,0.27077 -0.749127,0.27077 -0.315898,0 -0.56711,-0.0903 -0.753639,-0.27077 -0.183522,-0.18352 -0.28882,-0.42872 -0.315897,-0.73559 -0.003,-0.033 -0.0046,-0.10227 -0.0046,-0.20759 0,-0.11132 0.0015,-0.18352 0.0046,-0.21662 0.02407,-0.30686 0.12937,-0.55055 0.315897,-0.73107 0.186529,-0.18352 0.437741,-0.27528 0.753639,-0.27528 0.315896,0 0.567109,0.0918 0.753639,0.27528 0.186529,0.18052 0.291828,0.42421 0.315897,0.73107 z m -0.410666,0.0226 c -0.01805,-0.19254 -0.08273,-0.34748 -0.19405,-0.46481 -0.108308,-0.11733 -0.263248,-0.176 -0.46482,-0.176 -0.201573,0 -0.358016,0.0587 -0.469332,0.176 -0.108308,0.11733 -0.171487,0.27227 -0.189538,0.46481 -0.003,0.0361 -0.0046,0.1008 -0.0046,0.19406 0,0.0903 0.0015,0.15193 0.0046,0.18502 0.01805,0.19255 0.08123,0.34749 0.189538,0.46482 0.111316,0.11733 0.267759,0.176 0.469332,0.176 0.201572,0 0.356512,-0.0587 0.46482,-0.176 0.111315,-0.11733 0.175999,-0.27227 0.19405,-0.46482 0.006,-0.0662 0.009,-0.12786 0.009,-0.18502 0,-0.0572 -0.003,-0.12184 -0.009,-0.19406 z m 0.591038,-0.86194 c -10e-7,-0.033 0.01203,-0.0616 0.03611,-0.0857 0.02406,-0.0241 0.05264,-0.0361 0.08574,-0.0361 h 0.166974 c 0.03309,0 0.06167,0.012 0.08575,0.0361 0.02407,0.0241 0.03611,0.0527 0.03611,0.0857 v 1.19138 c 0,0.22865 0.05114,0.40164 0.153435,0.51897 0.105299,0.11433 0.25723,0.17149 0.455794,0.17149 0.192546,0 0.341468,-0.0587 0.446768,-0.176 0.108307,-0.11733 0.162461,-0.28882 0.162461,-0.51446 v -1.19138 c 0,-0.033 0.01203,-0.0616 0.03611,-0.0857 0.02407,-0.0241 0.05265,-0.0361 0.08575,-0.0361 h 0.166974 c 0.03309,0 0.06167,0.012 0.08575,0.0361 0.02407,0.0241 0.03611,0.0527 0.03611,0.0857 v 2.10297 c 0,0.033 -0.01203,0.0616 -0.03611,0.0857 -0.02407,0.0241 -0.05265,0.0361 -0.08575,0.0361 h -0.166974 c -0.03309,0 -0.06167,-0.012 -0.08575,-0.0361 -0.02407,-0.0241 -0.03611,-0.0527 -0.03611,-0.0857 v -0.1399 c -0.156444,0.20458 -0.382085,0.30688 -0.676922,0.30688 -0.288819,0 -0.520477,-0.0903 -0.694972,-0.27077 -0.171488,-0.18052 -0.257229,-0.42722 -0.25723,-0.74011 z m 3.537903,-0.12184 c 0.03309,0 0.06167,0.012 0.08575,0.0361 0.02407,0.0241 0.03611,0.0527 0.03611,0.0857 v 0.14441 c 0,0.033 -0.01203,0.0616 -0.03611,0.0857 -0.02407,0.0241 -0.05265,0.0361 -0.08575,0.0361 h -0.261743 c -0.168478,0 -0.297846,0.0452 -0.388101,0.13539 -0.08725,0.0873 -0.130872,0.21511 -0.130872,0.38358 v 1.31775 c 0,0.033 -0.01203,0.0616 -0.0361,0.0857 -0.02407,0.0241 -0.05265,0.0361 -0.08575,0.0361 H 93.78307 c -0.03309,0 -0.06167,-0.012 -0.08575,-0.0361 -0.02407,-0.0241 -0.03611,-0.0527 -0.03611,-0.0857 v -2.10297 c 0,-0.033 0.01203,-0.0616 0.03611,-0.0857 0.02407,-0.0241 0.05265,-0.0361 0.08575,-0.0361 h 0.166974 c 0.03309,0 0.06167,0.012 0.08575,0.0361 0.02406,0.0241 0.0361,0.0527 0.0361,0.0857 v 0.13989 c 0.06017,-0.0903 0.132373,-0.15644 0.216615,-0.19856 0.08424,-0.0421 0.19405,-0.0632 0.329435,-0.0632 z m 1.091963,2.00368 c 0,-0.30086 0.50393,-0.11733 0.60923,-0.35199 0.02106,-0.0452 0.04212,-0.0767 0.06318,-0.0948 0.02106,-0.0181 0.04964,-0.0271 0.08575,-0.0271 h 0.135384 c 0.03309,0 0.06167,0.012 0.08574,0.0361 0.02407,0.021 0.03611,0.0466 0.03611,0.0767 0,0.10229 -0.04061,0.2121 -0.121846,0.32944 -0.08123,0.11733 -0.198564,0.21661 -0.351999,0.29784 -0.153436,0.0812 -0.333949,0.12184 -0.541538,0.12184 -0.213606,0 -0.398632,-0.0451 -0.555075,-0.13538 -0.156444,-0.0903 -0.276786,-0.2136 -0.361025,-0.37005 -0.08424,-0.15946 -0.130871,-0.33696 -0.139897,-0.53252 -0.003,-0.0361 -0.0046,-0.1053 -0.0046,-0.20758 0,-0.0722 0.0015,-0.12336 0.0046,-0.15344 0.02708,-0.30687 0.13087,-0.55658 0.311384,-0.74912 0.180512,-0.19255 0.428716,-0.28882 0.744613,-0.28882 0.207589,0 0.386597,0.0406 0.537025,0.12184 0.153435,0.0782 0.269264,0.17601 0.347486,0.29334 0.08123,0.11432 0.124854,0.22262 0.130872,0.32492 0.003,0.033 -0.009,0.0616 -0.03611,0.0857 -0.02407,0.0241 -0.05265,0.0361 -0.08574,0.0361 h -0.135384 c -0.03611,0 -0.06469,-0.009 -0.08575,-0.0271 -0.02106,-0.0181 -0.04212,-0.0497 -0.06318,-0.0948 -0.1053,-0.23467 -0.308376,-0.352 -0.60923,-0.352 -0.165469,0 -0.309879,0.0557 -0.433229,0.16697 -0.12335,0.11132 -0.194052,0.27979 -0.212102,0.50544 -0.003,0.033 -0.0046,0.0872 -0.0046,0.16246 0,0.0692 0.0015,0.12034 0.0046,0.15343 0.02106,0.22564 0.09176,0.39412 0.212102,0.50544 0.12335,0.11131 0.433229,0.33244 0.433229,0.16697 z m 2.111856,-2.04881 c 0.321913,0 0.576136,0.10229 0.762665,0.30687 0.186529,0.20457 0.279794,0.48287 0.279794,0.83487 v 0.12184 c 0,0.033 -0.01203,0.0616 -0.03611,0.0857 -0.02407,0.0241 -0.05265,0.0361 -0.08575,0.0361 h -1.552407 v 0.0271 c 0.006,0.19857 0.06618,0.35501 0.180512,0.46933 0.117333,0.11132 0.26776,0.16698 0.451281,0.16698 0.150427,0 0.266256,-0.0196 0.347487,-0.0587 0.08424,-0.0391 0.159452,-0.0948 0.22564,-0.16698 0.02407,-0.0241 0.04514,-0.0406 0.06318,-0.0496 0.02106,-0.009 0.04814,-0.0136 0.08123,-0.0136 h 0.135385 c 0.03611,0 0.06619,0.012 0.09025,0.0361 0.02407,0.0241 0.0346,0.0527 0.03159,0.0857 -0.01203,0.0812 -0.05716,0.16546 -0.135384,0.25271 -0.07522,0.0843 -0.185025,0.15644 -0.329435,0.21662 -0.141402,0.0571 -0.311385,0.0857 -0.509948,0.0857 -0.192547,0 -0.364034,-0.0436 -0.51446,-0.13087 -0.150428,-0.0903 -0.270769,-0.2136 -0.361024,-0.37005 -0.08725,-0.15645 -0.139898,-0.33245 -0.157949,-0.528 -0.006,-0.0903 -0.009,-0.15945 -0.009,-0.20759 0,-0.0482 0.003,-0.11731 0.009,-0.20758 0.01805,-0.18654 0.0707,-0.35502 0.157949,-0.50544 0.09025,-0.15043 0.209092,-0.26927 0.356511,-0.35652 0.150427,-0.0873 0.323418,-0.13086 0.518973,-0.13086 z m 0.636306,1.00635 v -0.0136 c 0,-0.18352 -0.05867,-0.32944 -0.175999,-0.43775 -0.114325,-0.11131 -0.267761,-0.16697 -0.460307,-0.16697 -0.174496,0 -0.323418,0.0557 -0.446767,0.16697 -0.120343,0.11132 -0.182018,0.25723 -0.185026,0.43775 v 0.0136 z m 2.902355,0.34297 c -0.43925,-0.0933 -0.65888,-0.31739 -0.65888,-0.67241 0,-0.12334 0.0331,-0.23616 0.0993,-0.33845 0.0662,-0.1023 0.16397,-0.18352 0.29333,-0.24369 0.13238,-0.0632 0.29333,-0.0947 0.48288,-0.0947 0.18653,0 0.34748,0.027 0.48287,0.0812 0.13538,0.0542 0.23767,0.12189 0.30687,0.20308 0.0722,0.0812 0.10831,0.15946 0.10831,0.23467 0,0.0301 -0.012,0.0572 -0.0361,0.0812 -0.0241,0.021 -0.0527,0.0316 -0.0857,0.0316 h -0.14892 c -0.0572,0 -0.10228,-0.021 -0.13539,-0.0632 -0.0933,-0.12034 -0.25722,-0.18051 -0.49189,-0.18051 -0.13839,0 -0.25122,0.0256 -0.33846,0.0767 -0.0843,0.0512 -0.12636,0.12185 -0.12636,0.2121 0,0.0752 0.021,0.13238 0.0632,0.17149 0.0421,0.039 0.10529,0.0706 0.18953,0.0948 0.0843,0.0241 0.23317,0.0602 0.44678,0.1083 0.26475,0.0572 0.45278,0.14441 0.5641,0.26175 0.11131,0.11733 0.16697,0.26023 0.16697,0.42872 0,0.12334 -0.0391,0.23767 -0.11733,0.34297 -0.0752,0.1053 -0.18503,0.19104 -0.32944,0.25723 -0.14139,0.0632 -0.30686,0.0948 -0.49641,0.0948 -0.18653,0 -0.352,-0.0286 -0.49641,-0.0857 -0.1414,-0.0602 -0.25121,-0.13239 -0.32943,-0.21661 -0.0782,-0.0843 -0.11733,-0.16397 -0.11733,-0.23918 0,-0.0301 0.012,-0.0557 0.0361,-0.0767 0.0241,-0.0241 0.0527,-0.0361 0.0857,-0.0361 h 0.16246 c 0.027,0 0.0511,0.003 0.0722,0.009 0.021,0.006 0.0406,0.0224 0.0587,0.0496 0.0993,0.13839 0.27528,0.20758 0.528,0.20758 0.14141,0 0.26475,-0.0286 0.37005,-0.0857 0.10831,-0.0602 0.16247,-0.13391 0.16247,-0.22113 0,-0.0722 -0.027,-0.12937 -0.0812,-0.17149 -0.0511,-0.0451 -0.12637,-0.0813 -0.22564,-0.10831 -0.0993,-0.0301 -0.25422,-0.0677 -0.46481,-0.11282 z m 3.37995,-0.34297 c 0.006,0.0662 0.009,0.13839 0.009,0.21662 0,0.0722 -0.003,0.1414 -0.009,0.20759 -0.027,0.30687 -0.13387,0.55207 -0.32041,0.73559 -0.18351,0.18051 -0.43323,0.27077 -0.74912,0.27077 -0.3159,0 -0.56711,-0.0903 -0.75364,-0.27077 -0.18352,-0.18352 -0.28882,-0.42872 -0.3159,-0.73559 -0.003,-0.033 -0.005,-0.10227 -0.005,-0.20759 0,-0.11132 0.002,-0.18353 0.005,-0.21662 0.0241,-0.30686 0.12939,-0.55055 0.3159,-0.73107 0.18653,-0.18352 0.43774,-0.27528 0.75364,-0.27528 0.31589,0 0.56711,0.0918 0.75364,0.27528 0.18652,0.18052 0.29182,0.42421 0.31589,0.73107 z m -0.41067,0.0226 c -0.018,-0.19254 -0.0827,-0.34748 -0.19405,-0.46481 -0.1083,-0.11733 -0.26324,-0.176 -0.46481,-0.176 -0.20158,0 -0.35802,0.0587 -0.46933,0.176 -0.10831,0.11733 -0.1715,0.27227 -0.18955,0.46481 -0.003,0.0361 -0.005,0.1008 -0.005,0.19406 0,0.0903 0.002,0.15193 0.005,0.18502 0.018,0.19255 0.0812,0.34749 0.18955,0.46482 0.11131,0.11733 0.26775,0.176 0.46933,0.176 0.20157,0 0.35651,-0.0587 0.46481,-0.176 0.11133,-0.11733 0.176,-0.27227 0.19405,-0.46482 0.006,-0.0662 0.009,-0.12786 0.009,-0.18502 0,-0.0572 -0.003,-0.12184 -0.009,-0.19406 z m 1.02427,1.24103 c 0,0.033 -0.012,0.0616 -0.0361,0.0857 -0.0241,0.0241 -0.0527,0.0361 -0.0857,0.0361 h -0.16698 c -0.033,0 -0.0616,-0.012 -0.0857,-0.0361 -0.0241,-0.0241 -0.0361,-0.0527 -0.0361,-0.0857 v -2.96041 c 0,-0.033 0.012,-0.0616 0.0361,-0.0857 0.0241,-0.0241 0.0527,-0.0361 0.0857,-0.0361 h 0.16698 c 0.033,0 0.0616,0.012 0.0857,0.0361 0.0241,0.0241 0.0361,0.0527 0.0361,0.0857 z m 0.28417,-2.10297 c 0,-0.033 0.012,-0.0616 0.0361,-0.0857 0.0241,-0.0241 0.0527,-0.0361 0.0857,-0.0361 h 0.16697 c 0.033,0 0.0616,0.012 0.0857,0.0361 0.0241,0.0241 0.0361,0.0527 0.0361,0.0857 v 1.19138 c 0,0.22865 0.0512,0.40164 0.15344,0.51897 0.10529,0.11433 0.25723,0.17149 0.45579,0.17149 0.19255,0 0.34147,-0.0587 0.44677,-0.176 0.1083,-0.11733 0.16246,-0.28882 0.16246,-0.51446 v -1.19138 c 0,-0.033 0.012,-0.0616 0.0361,-0.0857 0.0241,-0.0241 0.0527,-0.0361 0.0857,-0.0361 h 0.16698 c 0.033,0 0.0616,0.012 0.0857,0.0361 0.0241,0.0241 0.0361,0.0527 0.0361,0.0857 v 2.10297 c 0,0.033 -0.012,0.0616 -0.0361,0.0857 -0.0241,0.0241 -0.0527,0.0361 -0.0857,0.0361 h -0.16698 c -0.033,0 -0.0616,-0.012 -0.0857,-0.0361 -0.0241,-0.0241 -0.0361,-0.0527 -0.0361,-0.0857 v -0.1399 c -0.15644,0.20458 -0.38209,0.30688 -0.67692,0.30688 -0.28882,0 -0.52048,-0.0903 -0.69498,-0.27077 -0.17148,-0.18052 -0.25722,-0.42722 -0.25722,-0.74011 z m 2.96026,1.43507 c 0,0.12937 0.0256,0.22865 0.0767,0.29785 0.0542,0.0692 0.15491,0.10379 0.30235,0.10379 h 0.23919 c 0.033,0 0.0616,0.012 0.0857,0.0361 0.0241,0.0241 0.0361,0.0527 0.0361,0.0857 v 0.14441 c 0,0.033 -0.012,0.0616 -0.0361,0.0857 -0.0241,0.0241 -0.0527,0.0361 -0.0857,0.0361 H 109.167 c -0.25573,0 -0.44376,-0.0662 -0.5641,-0.19857 -0.12034,-0.13538 -0.18052,-0.33245 -0.18052,-0.59118 v -1.16882 h -0.33394 c -0.033,0 -0.0616,-0.012 -0.0857,-0.0361 -0.0241,-0.0241 -0.0361,-0.0527 -0.0361,-0.0857 v -0.14441 c 0,-0.033 0.012,-0.0616 0.0361,-0.0857 0.0241,-0.0241 0.0527,-0.0361 0.0857,-0.0361 h 0.33394 v -0.7356 c 0,-0.033 0.012,-0.0616 0.0361,-0.0857 0.0241,-0.0241 0.0527,-0.0361 0.0857,-0.0361 h 0.16698 c 0.033,0 0.0616,0.012 0.0857,0.0361 0.0241,0.0241 0.0361,0.0527 0.0361,0.0857 v 0.7356 h 0.57313 c 0.033,0 0.0616,0.012 0.0857,0.0361 0.0241,0.0241 0.0361,0.0527 0.0361,0.0857 v 0.14441 c 0,0.033 -0.012,0.0616 -0.0361,0.0857 -0.0241,0.0241 -0.0527,0.0361 -0.0857,0.0361 h -0.57313 z m 1.27699,-2.03527 c 0,0.033 -0.012,0.0616 -0.0361,0.0857 -0.0241,0.0241 -0.0527,0.0361 -0.0857,0.0361 h -0.25723 c -0.033,0 -0.0616,-0.012 -0.0857,-0.0361 -0.0241,-0.0241 -0.0361,-0.0527 -0.0361,-0.0857 v -0.25724 c 0,-0.033 0.012,-0.0616 0.0361,-0.0857 0.0241,-0.0241 0.0527,-0.0361 0.0857,-0.0361 h 0.25723 c 0.033,0 0.0616,0.012 0.0857,0.0361 0.0241,0.0241 0.0361,0.0527 0.0361,0.0857 z m -0.0452,2.70317 c 0,0.033 -0.012,0.0616 -0.0361,0.0857 -0.0241,0.0241 -0.0527,0.0361 -0.0857,0.0361 h -0.16698 c -0.033,0 -0.0616,-0.012 -0.0857,-0.0361 -0.0241,-0.0241 -0.0361,-0.0527 -0.0361,-0.0857 v -2.10297 c 0,-0.033 0.012,-0.0616 0.0361,-0.0857 0.0241,-0.0241 0.0527,-0.0361 0.0857,-0.0361 h 0.16698 c 0.033,0 0.0616,0.012 0.0857,0.0361 0.0241,0.0241 0.0361,0.0527 0.0361,0.0857 z m 2.33749,-1.26359 c 0.006,0.0662 0.009,0.13839 0.009,0.21662 0,0.0722 -0.003,0.1414 -0.009,0.20759 -0.027,0.30687 -0.13387,0.55207 -0.32041,0.73559 -0.18352,0.18051 -0.43323,0.27077 -0.74913,0.27077 -0.31589,0 -0.56711,-0.0903 -0.75364,-0.27077 -0.18352,-0.18352 -0.28881,-0.42872 -0.31589,-0.73559 -0.003,-0.033 -0.005,-0.10227 -0.005,-0.20759 0,-0.11132 0.002,-0.18353 0.005,-0.21662 0.0241,-0.30686 0.12939,-0.55055 0.31589,-0.73107 0.18653,-0.18352 0.43775,-0.27528 0.75364,-0.27528 0.3159,0 0.56711,0.0917 0.75365,0.27528 0.18653,0.18052 0.29182,0.42421 0.31589,0.73107 z m -0.41066,0.0226 c -0.0181,-0.19254 -0.0827,-0.34748 -0.19405,-0.46481 -0.10831,-0.11733 -0.26325,-0.176 -0.46483,-0.176 -0.20157,0 -0.35801,0.0587 -0.46933,0.176 -0.10831,0.11733 -0.17148,0.27227 -0.18953,0.46481 -0.003,0.0361 -0.005,0.1008 -0.005,0.19406 0,0.0903 0.002,0.15193 0.005,0.18502 0.018,0.19255 0.0812,0.34749 0.18953,0.46482 0.11132,0.11733 0.26776,0.176 0.46933,0.176 0.20158,0 0.35652,-0.0587 0.46483,-0.176 0.11131,-0.11733 0.176,-0.27227 0.19405,-0.46482 0.006,-0.0662 0.009,-0.12786 0.009,-0.18502 0,-0.0572 -0.003,-0.12184 -0.009,-0.19406 z m 2.69852,1.24103 c 0,0.033 -0.012,0.0616 -0.0361,0.0857 -0.0241,0.0241 -0.0527,0.0361 -0.0857,0.0361 h -0.16697 c -0.033,0 -0.0616,-0.012 -0.0857,-0.0361 -0.0241,-0.0241 -0.0361,-0.0527 -0.0361,-0.0857 v -1.19139 c 0,-0.22564 -0.0557,-0.39712 -0.16698,-0.51445 -0.11132,-0.11733 -0.26626,-0.176 -0.46482,-0.176 -0.19555,0 -0.35049,0.0587 -0.46482,0.176 -0.11132,0.11733 -0.16698,0.28881 -0.16698,0.51445 v 1.19139 c 0,0.033 -0.012,0.0616 -0.0361,0.0857 -0.0241,0.0241 -0.0527,0.0361 -0.0857,0.0361 h -0.16697 c -0.033,0 -0.0616,-0.012 -0.0857,-0.0361 -0.0241,-0.0241 -0.0361,-0.0527 -0.0361,-0.0857 v -2.10297 c 0,-0.033 0.012,-0.0616 0.0361,-0.0857 0.0241,-0.0241 0.0527,-0.0361 0.0857,-0.0361 h 0.16697 c 0.033,0 0.0616,0.012 0.0857,0.0361 0.0241,0.0241 0.0361,0.0527 0.0361,0.0857 v 0.13989 c 0.0662,-0.0872 0.15644,-0.15944 0.27077,-0.21661 0.11733,-0.0602 0.26024,-0.0903 0.42872,-0.0903 0.18954,0 0.35802,0.0406 0.50544,0.12185 0.14742,0.0812 0.26173,0.19856 0.34297,0.352 0.0843,0.15042 0.12636,0.32943 0.12636,0.53702 z m 0.84827,-0.92062 c -0.43925,-0.0933 -0.65888,-0.31739 -0.65888,-0.67241 0,-0.12334 0.0331,-0.23616 0.0993,-0.33845 0.0662,-0.1023 0.16396,-0.18352 0.29334,-0.24369 0.13237,-0.0632 0.29333,-0.0948 0.48286,-0.0948 0.18653,0 0.34749,0.027 0.48287,0.0812 0.13539,0.0542 0.23768,0.12189 0.30688,0.20308 0.0722,0.0812 0.1083,0.15946 0.1083,0.23467 0,0.0301 -0.012,0.0572 -0.0361,0.0812 -0.0241,0.021 -0.0527,0.0316 -0.0857,0.0316 h -0.14893 c -0.0572,0 -0.10228,-0.021 -0.13539,-0.0632 -0.0933,-0.12034 -0.25722,-0.18051 -0.49189,-0.18051 -0.13839,0 -0.25121,0.0256 -0.33846,0.0767 -0.0843,0.0511 -0.12635,0.12185 -0.12635,0.21209 0,0.0752 0.021,0.13239 0.0632,0.1715 0.0421,0.039 0.10529,0.0706 0.18954,0.0947 0.0843,0.0241 0.23316,0.0602 0.44677,0.1083 0.26475,0.0572 0.45278,0.14441 0.5641,0.26175 0.11131,0.11733 0.16697,0.26023 0.16697,0.42872 0,0.12334 -0.0391,0.23767 -0.11733,0.34297 -0.0752,0.10529 -0.18502,0.19104 -0.32944,0.25723 -0.14139,0.0632 -0.30686,0.0948 -0.49641,0.0948 -0.18652,0 -0.35199,-0.0286 -0.4964,-0.0857 -0.1414,-0.0602 -0.25121,-0.1324 -0.32944,-0.21661 -0.0782,-0.0843 -0.11733,-0.16397 -0.11733,-0.23918 0,-0.0301 0.012,-0.0557 0.0361,-0.0767 0.0241,-0.0241 0.0527,-0.0361 0.0857,-0.0361 h 0.16247 c 0.027,0 0.0511,0.003 0.0722,0.009 0.021,0.006 0.0406,0.0224 0.0587,0.0496 0.0993,0.13839 0.27529,0.20758 0.528,0.20758 0.14141,0 0.26475,-0.0286 0.37005,-0.0857 0.10831,-0.0602 0.16247,-0.1339 0.16247,-0.22112 0,-0.0722 -0.027,-0.12937 -0.0812,-0.17149 -0.0511,-0.0451 -0.12637,-0.0813 -0.22564,-0.10831 -0.0993,-0.0301 -0.25422,-0.0677 -0.46481,-0.11282 z"
             id="text16"
             style="font-size:4.65819px;font-family:Rubik;-inkscape-font-specification:Rubik;letter-spacing:-0.382115px;fill:#493083;stroke-width:0.0528843"
             aria-label="open  source solutions"
             sodipodi:nodetypes="csccsccsccsccccsccsccsccscsssssssssssscscccsccssccscssccsccscccccssssscccscccssscccscccsccccccscsccccssssssssscsssssssssssssccsscsscsscsccscsscscssscssccscsscssscscscccccsccsccsccsccccsccsccsccscssssssscscssssssssssssscscsscsssssssssssssssssssscsccsccsscsssssccscssccccssscsscsccsscssssscccscccssscccscccsccccccscscccccsscsccscsscscssscssccscsscssscscscccccscssccsccsccccsccsccsccscssssssssssssscsssssscscssssssssssssscscccccsssssssscscsssssscsssssscssssssccsssssssssssssssssssssssssscscssccsccsccccsccsccsccsccsssssssscsssssssssssssccssccccsscsccscsscscssscssccscsscssscscscccc" /></g><g
           id="g26"><path
             id="path26"
             style="fill:#f2f2f2;stroke-width:0.274138"
             d="m 116.17861,186.76189 a 1.3903341,1.40938 0 0 1 -1.39033,1.40938 1.3903341,1.40938 0 0 1 -1.39034,-1.40938 1.3903341,1.40938 0 0 1 1.39034,-1.40938 1.3903341,1.40938 0 0 1 1.39033,1.40938 z" /><path
             d="m 114.80074,185.12016 q 0.43468,0 0.79837,0.21734 0.36814,0.21291 0.58104,0.58105 0.21734,0.36371 0.21734,0.79837 0,0.43467 -0.21734,0.80281 -0.2129,0.36371 -0.58104,0.58105 -0.36369,0.21291 -0.79837,0.21291 -0.43468,0 -0.80282,-0.21291 -0.36369,-0.21734 -0.58103,-0.58105 -0.2129,-0.36814 -0.2129,-0.80281 0,-0.43466 0.2129,-0.79837 0.21734,-0.36814 0.58103,-0.58105 0.36814,-0.21734 0.80282,-0.21734 z m 0,2.88304 q 0.35039,0 0.6387,-0.17303 0.2883,-0.17302 0.45684,-0.46571 0.16854,-0.29717 0.16854,-0.64758 0,-0.35039 -0.16854,-0.64313 -0.16854,-0.29718 -0.45684,-0.47015 -0.28831,-0.17302 -0.6387,-0.17302 -0.35039,0 -0.63872,0.17302 -0.28828,0.17303 -0.45682,0.47015 -0.16854,0.29274 -0.16854,0.64313 0,0.35041 0.16854,0.64758 0.16854,0.29274 0.45682,0.46571 0.28833,0.17303 0.63872,0.17303 z m -0.53224,-0.47903 q -0.0443,0 -0.0709,-0.0266 -0.0266,-0.0266 -0.0266,-0.0709 v -1.4282 q 0,-0.0443 0.0266,-0.0709 0.0266,-0.0266 0.0709,-0.0266 h 0.61651 q 0.61208,0 0.61208,0.5367 0,0.3504 -0.26167,0.47016 l 0.2661,0.45684 q 0.0187,0.0266 0.0187,0.0621 0,0.04 -0.0266,0.0709 -0.0222,0.0266 -0.0709,0.0266 h -0.18182 q -0.0799,0 -0.12869,-0.0844 l -0.2661,-0.46571 h -0.30163 v 0.45241 q 0,0.0443 -0.0266,0.0709 -0.0266,0.0266 -0.0709,0.0266 z m 0.61651,-0.90039 q 0.1242,0 0.18182,-0.0443 0.0578,-0.0443 0.0578,-0.14198 0,-0.0975 -0.0578,-0.14197 -0.0576,-0.0443 -0.18182,-0.0443 h -0.34153 v 0.37257 z"
             id="text20"
             style="font-size:2.71977px;font-family:Rubik;-inkscape-font-specification:Rubik;letter-spacing:-0.223105px;fill:#493083;stroke-width:0.0519774"
             aria-label="®" /></g><path
           d="m 75.290943,194.46229 q -0.19906,0 -0.343832,-0.14476 -0.144771,-0.14478 -0.144771,-0.34384 v -15.94292 q 0,-0.19907 0.144771,-0.34385 0.144772,-0.14476 0.343832,-0.14476 h 3.492605 q 0.199061,0 0.343833,0.14476 0.144771,0.14478 0.144771,0.34385 v 0.57907 q 0,0.19906 -0.144771,0.34383 -0.144772,0.14477 -0.343833,0.14477 H 76.449113 V 192.906 h 2.334435 q 0.199061,0 0.343833,0.14477 0.144771,0.14477 0.144771,0.34383 v 0.57909 q 0,0.19906 -0.144771,0.34384 -0.144772,0.14476 -0.343833,0.14476 z"
           id="text21"
           style="font-size:19.0385px;font-family:Rubik;-inkscape-font-specification:Rubik;letter-spacing:-1.56175px;fill:#493083;stroke-width:0.212067"
           aria-label="[" /><path
           style="fill:#ffff00;fill-opacity:1;stroke-width:0.262852"
           d="m 50.963744,94.377201 13.997991,0.06193 -0.611196,5.697319 -13.4463,9.9703 z"
           id="path25"
           sodipodi:nodetypes="ccccc" /><g
           id="text25"
           style="font-size:2.1091px;font-family:Rubik;-inkscape-font-specification:Rubik;letter-spacing:-0.173012px;fill:#493083;stroke-width:0.024716"
           aria-label="Https://www.pa.js.org /reactiv || Portable @ Javascript Framework."><path
             d="m 82.161414,192.96357 q 0.0232,0 0.04007,0.0169 0.01687,0.0169 0.01687,0.0401 v 1.36248 q 0,0.0232 -0.01687,0.0401 -0.01687,0.0169 -0.04007,0.0169 h -0.08647 q -0.0232,0 -0.04007,-0.0169 -0.01687,-0.0169 -0.01687,-0.0401 v -0.59477 h -0.742403 v 0.59477 q 0,0.0232 -0.01687,0.0401 -0.01687,0.0169 -0.04007,0.0169 h -0.08647 q -0.0232,0 -0.04007,-0.0148 -0.01687,-0.0169 -0.01687,-0.0422 v -1.36248 q 0,-0.0232 0.01687,-0.0401 0.01687,-0.0169 0.04007,-0.0169 h 0.08647 q 0.0232,0 0.04007,0.0169 0.01687,0.0169 0.01687,0.0401 v 0.57789 h 0.742403 v -0.57789 q 0,-0.0232 0.01687,-0.0401 0.01687,-0.0169 0.04007,-0.0169 z m 0.510338,1.10728 q 0,0.0907 0.03585,0.1392 0.03796,0.0485 0.14131,0.0485 h 0.111782 q 0.0232,0 0.04007,0.0169 0.01687,0.0169 0.01687,0.0401 v 0.0675 q 0,0.0232 -0.01687,0.0401 -0.01687,0.0169 -0.04007,0.0169 h -0.132873 q -0.179273,0 -0.263637,-0.0928 -0.08436,-0.0949 -0.08436,-0.27629 V 193.5247 H 82.32375 q -0.0232,0 -0.04007,-0.0169 -0.01687,-0.0169 -0.01687,-0.0401 v -0.0675 q 0,-0.0232 0.01687,-0.0401 0.01687,-0.0169 0.04007,-0.0169 h 0.156074 v -0.34378 q 0,-0.0232 0.01687,-0.0401 0.01687,-0.0169 0.04007,-0.0169 h 0.07804 q 0.0232,0 0.04007,0.0169 0.01687,0.0169 0.01687,0.0401 v 0.34378 h 0.267855 q 0.0232,0 0.04007,0.0169 0.01687,0.0169 0.01687,0.0401 v 0.0675 q 0,0.0232 -0.01687,0.0401 -0.01687,0.0169 -0.04007,0.0169 h -0.267855 z m 0.670627,0 q 0,0.0907 0.03586,0.1392 0.03796,0.0485 0.141309,0.0485 h 0.111783 q 0.0232,0 0.04007,0.0169 0.01687,0.0169 0.01687,0.0401 v 0.0675 q 0,0.0232 -0.01687,0.0401 -0.01687,0.0169 -0.04007,0.0169 h -0.132874 q -0.179273,0 -0.263637,-0.0928 -0.08436,-0.0949 -0.08436,-0.27629 v -0.54626 h -0.156074 q -0.0232,0 -0.04007,-0.0169 -0.01687,-0.0169 -0.01687,-0.0401 v -0.0675 q 0,-0.0232 0.01687,-0.0401 0.01687,-0.0169 0.04007,-0.0169 h 0.156074 v -0.34378 q 0,-0.0232 0.01687,-0.0401 0.01687,-0.0169 0.04007,-0.0169 h 0.07804 q 0.0232,0 0.04007,0.0169 0.01687,0.0169 0.01687,0.0401 v 0.34378 h 0.267856 q 0.0232,0 0.04007,0.0169 0.01687,0.0169 0.01687,0.0401 v 0.0675 q 0,0.0232 -0.01687,0.0401 -0.01687,0.0169 -0.04007,0.0169 H 83.34238 Z m 0.575718,0.71287 q 0,0.0232 -0.01687,0.0401 -0.01687,0.0169 -0.04007,0.0169 h -0.07804 q -0.0232,0 -0.04007,-0.0169 -0.01687,-0.0169 -0.01687,-0.0401 v -1.38356 q 0,-0.0232 0.01687,-0.0401 0.01687,-0.0169 0.04007,-0.0169 h 0.07804 q 0.0232,0 0.04007,0.0169 0.01687,0.0169 0.01687,0.0401 v 0.0654 q 0.107564,-0.14342 0.32691,-0.14342 0.130764,0 0.236219,0.0612 0.107564,0.0612 0.170837,0.17506 0.06538,0.11389 0.07171,0.26574 0.0021,0.0211 0.0021,0.0675 0,0.0485 -0.0021,0.0696 -0.0063,0.15185 -0.07171,0.26574 -0.06327,0.11178 -0.168728,0.17295 -0.105455,0.0612 -0.238328,0.0612 -0.118109,0 -0.200364,-0.0401 -0.08015,-0.0422 -0.126546,-0.10335 z m 0,-0.81622 q 0.0063,0.14764 0.08858,0.22989 0.08225,0.0823 0.217237,0.0823 0.137092,0 0.217237,-0.0886 0.08226,-0.0886 0.09069,-0.24044 0.0021,-0.0211 0.0021,-0.059 0,-0.038 -0.0021,-0.0591 -0.0084,-0.15185 -0.09069,-0.24044 -0.08015,-0.0886 -0.217237,-0.0886 -0.130764,0 -0.215128,0.0823 -0.08436,0.0801 -0.09069,0.21512 l -0.0021,0.0823 z m 1.159938,-0.0148 q -0.307929,-0.0654 -0.307929,-0.31426 0,-0.0865 0.0464,-0.15818 0.0464,-0.0717 0.137091,-0.11389 0.0928,-0.0443 0.225674,-0.0443 0.130764,0 0.225673,0.038 0.09491,0.038 0.143419,0.0949 0.05062,0.057 0.05062,0.10967 0,0.0211 -0.01687,0.038 -0.01687,0.0148 -0.04007,0.0148 h -0.0696 q -0.04007,0 -0.06327,-0.0295 -0.06538,-0.0844 -0.229892,-0.0844 -0.09702,0 -0.158183,0.0359 -0.05906,0.0359 -0.05906,0.0991 0,0.0527 0.02953,0.0802 0.02953,0.0274 0.08858,0.0443 0.05906,0.0169 0.208801,0.0506 0.185601,0.0401 0.263637,0.12233 0.07804,0.0823 0.07804,0.20036 0,0.0865 -0.05484,0.16029 -0.05273,0.0738 -0.153965,0.12022 -0.09913,0.0443 -0.232001,0.0443 -0.130764,0 -0.232001,-0.0401 -0.09913,-0.0422 -0.153964,-0.10124 -0.05484,-0.059 -0.05484,-0.11178 0,-0.0211 0.01687,-0.0359 0.01687,-0.0169 0.04007,-0.0169 h 0.07593 q 0.01898,0 0.03374,0.004 0.01476,0.004 0.02742,0.0232 0.0696,0.097 0.246764,0.097 0.09913,0 0.172946,-0.0401 0.07593,-0.0422 0.07593,-0.10335 0,-0.0506 -0.03796,-0.0801 -0.03585,-0.0316 -0.105455,-0.0506 -0.0696,-0.0211 -0.217237,-0.0527 z m 0.814048,-0.50618 q 0.0232,0 0.04007,0.0169 0.01687,0.0169 0.01687,0.0401 v 0.14131 q 0,0.0232 -0.01687,0.0401 -0.01687,0.0169 -0.04007,0.0169 h -0.14131 q -0.0232,0 -0.04007,-0.0169 -0.01687,-0.0169 -0.01687,-0.0401 v -0.14131 q 0,-0.0232 0.01687,-0.0401 0.01687,-0.0169 0.04007,-0.0169 z m 0,0.73818 q 0.0232,0 0.04007,0.0169 0.01687,0.0169 0.01687,0.0401 v 0.14131 q 0,0.0232 -0.01687,0.0401 -0.01687,0.0169 -0.04007,0.0169 h -0.14131 q -0.0232,0 -0.04007,-0.0169 -0.01687,-0.0169 -0.01687,-0.0401 v -0.14131 q 0,-0.0232 0.01687,-0.0401 0.01687,-0.0169 0.04007,-0.0169 z m 0.790847,-1.33928 q 0.02742,-0.0633 0.0928,-0.0633 h 0.0696 q 0.01898,0 0.03164,0.0148 0.01476,0.0127 0.01476,0.0316 0,0.008 -0.0042,0.019 l -0.712875,1.70626 q -0.02531,0.0633 -0.0928,0.0633 h -0.06327 q -0.01898,0 -0.03374,-0.0148 -0.01266,-0.0127 -0.01266,-0.0316 0,-0.008 0.0042,-0.019 z m 0.85201,0 q 0.02742,-0.0633 0.0928,-0.0633 h 0.0696 q 0.01898,0 0.03164,0.0148 0.01476,0.0127 0.01476,0.0316 0,0.008 -0.0042,0.019 l -0.712876,1.70626 q -0.02531,0.0633 -0.0928,0.0633 h -0.06327 q -0.01898,0 -0.03375,-0.0148 -0.01265,-0.0127 -0.01265,-0.0316 0,-0.008 0.0042,-0.019 z m 1.514269,0.54837 q 0.01898,-0.0506 0.07171,-0.0506 h 0.0696 q 0.02109,0 0.03585,0.0148 0.01476,0.0148 0.01476,0.0359 l -0.0021,0.0169 -0.322693,0.97019 q -0.01898,0.0591 -0.06327,0.0591 h -0.06538 q -0.02531,0 -0.04007,-0.0148 -0.01476,-0.0169 -0.02531,-0.0443 l -0.250983,-0.70022 -0.250983,0.70022 q -0.01054,0.0274 -0.02531,0.0443 -0.01476,0.0148 -0.04007,0.0148 h -0.06538 q -0.04429,0 -0.06327,-0.0591 l -0.322692,-0.97019 -0.0021,-0.0169 q 0,-0.0211 0.01476,-0.0359 0.01476,-0.0148 0.03585,-0.0148 h 0.0696 q 0.05273,0 0.07171,0.0506 l 0.236219,0.70444 0.253092,-0.70444 q 0.01898,-0.0506 0.06538,-0.0506 h 0.0464 q 0.0464,0 0.06538,0.0506 l 0.253092,0.70444 z m 1.522706,0 q 0.01898,-0.0506 0.07171,-0.0506 h 0.0696 q 0.02109,0 0.03585,0.0148 0.01476,0.0148 0.01476,0.0359 l -0.0021,0.0169 -0.322693,0.97019 q -0.01898,0.0591 -0.06327,0.0591 h -0.06538 q -0.02531,0 -0.04007,-0.0148 -0.01476,-0.0169 -0.02531,-0.0443 l -0.250983,-0.70022 -0.250983,0.70022 q -0.01054,0.0274 -0.02531,0.0443 -0.01476,0.0148 -0.04007,0.0148 h -0.06538 q -0.04429,0 -0.06327,-0.0591 l -0.322692,-0.97019 -0.0021,-0.0169 q 0,-0.0211 0.01476,-0.0359 0.01476,-0.0148 0.03585,-0.0148 h 0.0696 q 0.05273,0 0.07171,0.0506 l 0.236219,0.70444 0.253092,-0.70444 q 0.01898,-0.0506 0.06538,-0.0506 h 0.0464 q 0.0464,0 0.06538,0.0506 l 0.253092,0.70444 z m 1.522707,0 q 0.01898,-0.0506 0.07171,-0.0506 h 0.0696 q 0.02109,0 0.03586,0.0148 0.01476,0.0148 0.01476,0.0359 l -0.0021,0.0169 -0.322693,0.97019 q -0.01898,0.0591 -0.06327,0.0591 h -0.06538 q -0.02531,0 -0.04007,-0.0148 -0.01476,-0.0169 -0.02531,-0.0443 l -0.250983,-0.70022 -0.250983,0.70022 q -0.01054,0.0274 -0.02531,0.0443 -0.01476,0.0148 -0.04007,0.0148 h -0.06538 q -0.04429,0 -0.06327,-0.0591 l -0.322692,-0.97019 -0.0021,-0.0169 q 0,-0.0211 0.01476,-0.0359 0.01476,-0.0148 0.03585,-0.0148 h 0.0696 q 0.05273,0 0.07171,0.0506 l 0.236219,0.70444 0.253092,-0.70444 q 0.01898,-0.0506 0.06538,-0.0506 h 0.0464 q 0.0464,0 0.06538,0.0506 l 0.253092,0.70444 z m 0.428083,0.79091 q 0.0232,0 0.04007,0.0169 0.01687,0.0169 0.01687,0.0401 v 0.14131 q 0,0.0232 -0.01687,0.0401 -0.01687,0.0169 -0.04007,0.0169 h -0.14131 q -0.0232,0 -0.04007,-0.0169 -0.01687,-0.0169 -0.01687,-0.0401 v -0.14131 q 0,-0.0232 0.01687,-0.0401 0.01687,-0.0169 0.04007,-0.0169 z m 0.366916,0.59898 q 0,0.0232 -0.01687,0.0401 -0.01687,0.0169 -0.04007,0.0169 h -0.07804 q -0.0232,0 -0.04007,-0.0169 -0.01687,-0.0169 -0.01687,-0.0401 v -1.38356 q 0,-0.0232 0.01687,-0.0401 0.01687,-0.0169 0.04007,-0.0169 h 0.07804 q 0.0232,0 0.04007,0.0169 0.01687,0.0169 0.01687,0.0401 v 0.0654 q 0.107564,-0.14342 0.326911,-0.14342 0.130764,0 0.236219,0.0612 0.107564,0.0612 0.170837,0.17506 0.06538,0.11389 0.07171,0.26574 0.0021,0.0211 0.0021,0.0675 0,0.0485 -0.0021,0.0696 -0.0063,0.15185 -0.07171,0.26574 -0.06327,0.11178 -0.168728,0.17295 -0.105455,0.0612 -0.238328,0.0612 -0.11811,0 -0.200365,-0.0401 -0.08015,-0.0422 -0.126546,-0.10335 z m 0,-0.81622 q 0.0063,0.14764 0.08858,0.22989 0.08225,0.0823 0.217237,0.0823 0.137091,0 0.217237,-0.0886 0.08226,-0.0886 0.09069,-0.24044 0.0021,-0.0211 0.0021,-0.059 0,-0.038 -0.0021,-0.0591 -0.0084,-0.15185 -0.09069,-0.24044 -0.08015,-0.0886 -0.217237,-0.0886 -0.130764,0 -0.215128,0.0823 -0.08436,0.0801 -0.09069,0.21512 l -0.0021,0.0823 z m 1.548013,-0.22145 v -0.0274 q 0,-0.10335 -0.0696,-0.15818 -0.06749,-0.057 -0.177164,-0.057 -0.08436,0 -0.132874,0.0295 -0.0464,0.0274 -0.08858,0.0844 -0.01265,0.0169 -0.02742,0.0232 -0.01476,0.006 -0.04007,0.006 h -0.06327 q -0.0232,0 -0.04218,-0.0169 -0.01687,-0.0169 -0.01476,-0.0401 0.0063,-0.0633 0.06116,-0.12443 0.05695,-0.0633 0.149746,-0.10335 0.0928,-0.0401 0.198256,-0.0401 0.196146,0 0.316365,0.10967 0.122327,0.10967 0.122327,0.30793 v 0.64328 q 0,0.0232 -0.01687,0.0401 -0.01687,0.0169 -0.04007,0.0169 h -0.07804 q -0.0232,0 -0.04007,-0.0169 -0.01687,-0.0169 -0.01687,-0.0401 v -0.0865 q -0.03374,0.0759 -0.143418,0.12022 -0.109674,0.0443 -0.219347,0.0443 -0.107564,0 -0.191928,-0.038 -0.08436,-0.0401 -0.130764,-0.10757 -0.04429,-0.0675 -0.04429,-0.15185 0,-0.15818 0.118109,-0.24677 0.11811,-0.0907 0.314256,-0.12232 z m 0,0.16873 -0.248873,0.0401 q -0.137092,0.0211 -0.21302,0.0696 -0.07593,0.0464 -0.07593,0.11811 0,0.0527 0.04851,0.0949 0.04851,0.0422 0.147637,0.0422 0.151855,0 0.246765,-0.0865 0.09491,-0.0865 0.09491,-0.22568 z m 0.49979,0.26996 q 0.0232,0 0.04007,0.0169 0.01687,0.0169 0.01687,0.0401 v 0.14131 q 0,0.0232 -0.01687,0.0401 -0.01687,0.0169 -0.04007,0.0169 h -0.141309 q -0.0232,0 -0.04007,-0.0169 -0.01687,-0.0169 -0.01687,-0.0401 v -0.14131 q 0,-0.0232 0.01687,-0.0401 0.01687,-0.0169 0.04007,-0.0169 z m 0.40699,-1.0651 q 0,0.0232 -0.01687,0.0401 -0.01687,0.0169 -0.04007,0.0169 h -0.120219 q -0.0232,0 -0.04007,-0.0169 -0.01687,-0.0169 -0.01687,-0.0401 v -0.12021 q 0,-0.0232 0.01687,-0.0401 0.01687,-0.0169 0.04007,-0.0169 h 0.120219 q 0.0232,0 0.04007,0.0169 0.01687,0.0169 0.01687,0.0401 z m -0.213019,0.28052 q 0,-0.0232 0.01687,-0.0401 0.01687,-0.0169 0.04007,-0.0169 h 0.07804 q 0.0232,0 0.04007,0.0169 0.01687,0.0169 0.01687,0.0401 v 1.07142 q 0,0.18138 -0.08436,0.27418 -0.08436,0.0949 -0.263638,0.0949 h -0.04007 q -0.0232,0 -0.04007,-0.0169 -0.01687,-0.0169 -0.01687,-0.0401 v -0.0675 q 0,-0.0232 0.01687,-0.0401 0.01687,-0.0169 0.04007,-0.0169 h 0.01898 q 0.103346,0 0.139201,-0.0485 0.03796,-0.0485 0.03796,-0.1392 z m 0.598919,0.55258 q -0.307929,-0.0654 -0.307929,-0.31426 0,-0.0865 0.0464,-0.15818 0.0464,-0.0717 0.137092,-0.11389 0.0928,-0.0443 0.225673,-0.0443 0.130765,0 0.225674,0.038 0.09491,0.038 0.143419,0.0949 0.05062,0.057 0.05062,0.10967 0,0.0211 -0.01687,0.038 -0.01687,0.0148 -0.04007,0.0148 h -0.0696 q -0.04007,0 -0.06327,-0.0295 -0.06538,-0.0844 -0.229892,-0.0844 -0.09702,0 -0.158182,0.0359 -0.05906,0.0359 -0.05906,0.0991 0,0.0527 0.02953,0.0802 0.02953,0.0274 0.08858,0.0443 0.05906,0.0169 0.208801,0.0506 0.1856,0.0401 0.263637,0.12233 0.07804,0.0823 0.07804,0.20036 0,0.0865 -0.05484,0.16029 -0.05273,0.0738 -0.153964,0.12022 -0.09913,0.0443 -0.232001,0.0443 -0.130764,0 -0.232001,-0.0401 -0.09913,-0.0422 -0.153964,-0.10124 -0.05484,-0.059 -0.05484,-0.11178 0,-0.0211 0.01687,-0.0359 0.01687,-0.0169 0.04007,-0.0169 h 0.07593 q 0.01898,0 0.03375,0.004 0.01476,0.004 0.02742,0.0232 0.0696,0.097 0.246765,0.097 0.09913,0 0.172946,-0.0401 0.07593,-0.0422 0.07593,-0.10335 0,-0.0506 -0.03796,-0.0801 -0.03585,-0.0316 -0.105455,-0.0506 -0.0696,-0.0211 -0.217237,-0.0527 z m 0.803502,0.232 q 0.0232,0 0.04007,0.0169 0.01687,0.0169 0.01687,0.0401 v 0.14131 q 0,0.0232 -0.01687,0.0401 -0.01687,0.0169 -0.04007,0.0169 h -0.14131 q -0.0232,0 -0.04007,-0.0169 -0.01687,-0.0169 -0.01687,-0.0401 v -0.14131 q 0,-0.0232 0.01687,-0.0401 0.01687,-0.0169 0.04007,-0.0169 z m 1.124084,-0.39229 q 0.0042,0.0464 0.0042,0.10123 0,0.0506 -0.0042,0.097 -0.01898,0.21513 -0.149746,0.34379 -0.128655,0.12654 -0.35011,0.12654 -0.221456,0 -0.35222,-0.12654 -0.128655,-0.12866 -0.147637,-0.34379 -0.0021,-0.0232 -0.0021,-0.097 0,-0.078 0.0021,-0.10123 0.01687,-0.21513 0.147637,-0.34168 0.130764,-0.12865 0.35222,-0.12865 0.221455,0 0.352219,0.12865 0.130765,0.12655 0.147637,0.34168 z m -0.191928,0.0105 q -0.01265,-0.13498 -0.09069,-0.21723 -0.07593,-0.0823 -0.217237,-0.0823 -0.14131,0 -0.219347,0.0823 -0.07593,0.0823 -0.08858,0.21723 -0.0021,0.0253 -0.0021,0.0907 0,0.0633 0.0021,0.0865 0.01265,0.13498 0.08858,0.21723 0.07804,0.0823 0.219347,0.0823 0.141309,0 0.217237,-0.0823 0.07804,-0.0823 0.09069,-0.21723 0.0042,-0.0464 0.0042,-0.0865 0,-0.0401 -0.0042,-0.0907 z m 0.843574,-0.45978 q 0.0232,0 0.04007,0.0169 0.01687,0.0169 0.01687,0.0401 v 0.0675 q 0,0.0232 -0.01687,0.0401 -0.01687,0.0169 -0.04007,0.0169 h -0.122328 q -0.11811,0 -0.181383,0.0633 -0.06116,0.0612 -0.06116,0.17928 v 0.61586 q 0,0.0232 -0.01687,0.0401 -0.01687,0.0169 -0.04007,0.0169 h -0.07804 q -0.0232,0 -0.04007,-0.0169 -0.01687,-0.0169 -0.01687,-0.0401 v -0.98284 q 0,-0.0232 0.01687,-0.0401 0.01687,-0.0169 0.04007,-0.0169 h 0.07804 q 0.0232,0 0.04007,0.0169 0.01687,0.0169 0.01687,0.0401 v 0.0654 q 0.04218,-0.0633 0.101237,-0.0928 0.05906,-0.0295 0.153964,-0.0295 z m 0.493465,-0.0211 q 0.118109,0 0.198255,0.0422 0.08226,0.0401 0.128655,0.10124 v -0.0654 q 0,-0.0232 0.01687,-0.0401 0.01687,-0.0169 0.04007,-0.0169 h 0.07804 q 0.0232,0 0.04007,0.0169 0.01687,0.0169 0.01687,0.0401 v 1.02502 q 0,0.22356 -0.126546,0.35011 -0.126546,0.12865 -0.371201,0.12865 -0.158183,0 -0.265747,-0.0485 -0.107564,-0.0485 -0.160291,-0.12021 -0.05062,-0.0717 -0.05484,-0.14553 -0.0021,-0.0232 0.01476,-0.0401 0.01898,-0.0169 0.04218,-0.0169 h 0.06327 q 0.02531,0 0.04007,0.0127 0.01476,0.0127 0.02953,0.0443 0.02109,0.0485 0.08015,0.0907 0.05906,0.0422 0.189819,0.0422 0.32691,0 0.32691,-0.27207 v -0.13288 q -0.107564,0.14342 -0.32691,0.14342 -0.130764,0 -0.238329,-0.0612 -0.105455,-0.0612 -0.170837,-0.17295 -0.06327,-0.11389 -0.0696,-0.26574 l -0.0021,-0.0696 0.0021,-0.0696 q 0.0063,-0.15186 0.0696,-0.26364 0.06538,-0.11389 0.170837,-0.17506 0.105455,-0.0612 0.238329,-0.0612 z m 0.02109,0.18138 q -0.137092,0 -0.219347,0.0886 -0.08015,0.0886 -0.08858,0.24044 l -0.0021,0.0591 0.0021,0.059 q 0.0084,0.15186 0.08858,0.24044 0.08226,0.0886 0.219347,0.0886 0.134982,0 0.217237,-0.0823 0.08226,-0.0844 0.08858,-0.22989 0.0021,-0.0211 0.0021,-0.0759 0,-0.0548 -0.0021,-0.0759 -0.0063,-0.14764 -0.08858,-0.22989 -0.08225,-0.0823 -0.217237,-0.0823 z m 1.588019,-0.65804 q 0.0274,-0.0633 0.0928,-0.0633 h 0.0696 q 0.019,0 0.0316,0.0148 0.0148,0.0127 0.0148,0.0316 0,0.008 -0.004,0.019 l -0.712874,1.70626 q -0.02531,0.0633 -0.0928,0.0633 h -0.06327 q -0.01898,0 -0.03375,-0.0148 -0.01265,-0.0127 -0.01265,-0.0316 0,-0.008 0.0042,-0.019 z"
             id="path28" /><path
             style="font-weight:bold;-inkscape-font-specification:'Rubik Bold'"
             d="m 101.37802,193.34321 q 0.0232,0 0.0401,0.0169 0.0169,0.0169 0.0169,0.0401 v 0.21301 q 0,0.0232 -0.0169,0.0401 -0.0169,0.0169 -0.0401,0.0169 h -0.19192 q -0.0949,0 -0.14553,0.0506 -0.0485,0.0485 -0.0485,0.14342 v 0.51884 q 0,0.0232 -0.0169,0.0401 -0.0169,0.0169 -0.0401,0.0169 h -0.26574 q -0.0232,0 -0.0401,-0.0169 -0.0169,-0.0169 -0.0169,-0.0401 v -0.98284 q 0,-0.0232 0.0169,-0.0401 0.0169,-0.0169 0.0401,-0.0169 h 0.24465 q 0.0232,0 0.0401,0.0169 0.0169,0.0169 0.0169,0.0401 v 0.0485 q 0.10967,-0.10545 0.28051,-0.10545 z m 0.35848,0.66858 q 0,0.0886 0.057,0.12655 0.0569,0.038 0.13287,0.038 0.0591,0 0.097,-0.0127 0.038,-0.0127 0.0654,-0.0359 0.0232,-0.019 0.0338,-0.0232 0.0105,-0.006 0.0358,-0.006 h 0.27419 q 0.0211,0 0.0337,0.0126 0.0127,0.0127 0.0127,0.0337 0,0.0422 -0.0633,0.12022 -0.0633,0.0759 -0.18771,0.13709 -0.12443,0.059 -0.3016,0.059 -0.27207,0 -0.42182,-0.14974 -0.14763,-0.15186 -0.14763,-0.41971 0,-0.16662 0.0654,-0.29528 0.0675,-0.12865 0.19614,-0.20036 0.12866,-0.0738 0.30793,-0.0738 0.19615,0 0.32269,0.0844 0.12866,0.0823 0.18771,0.21513 0.0591,0.13076 0.0591,0.27418 v 0.0591 q 0,0.0232 -0.0169,0.0401 -0.0169,0.0169 -0.0401,0.0169 z m 0.37964,-0.23411 q -0.008,-0.0717 -0.059,-0.12021 -0.0485,-0.0506 -0.13077,-0.0506 -0.0823,0 -0.13287,0.0506 -0.0485,0.0485 -0.057,0.12021 z m 1.02707,-0.0548 q 0,-0.116 -0.12233,-0.116 -0.0696,0 -0.11389,0.038 -0.0169,0.0169 -0.0337,0.0211 -0.0169,0.004 -0.0422,0.004 h -0.26785 q -0.0211,0 -0.0359,-0.0127 -0.0126,-0.0127 -0.0105,-0.0337 0.006,-0.0654 0.0717,-0.13498 0.0675,-0.0717 0.18139,-0.11811 0.11389,-0.0485 0.25098,-0.0485 0.25098,0 0.37542,0.11389 0.12655,0.11389 0.12655,0.30793 v 0.63906 q 0,0.0232 -0.0169,0.0401 -0.0169,0.0169 -0.0401,0.0169 h -0.26575 q -0.0232,0 -0.0401,-0.0169 -0.0169,-0.0169 -0.0169,-0.0401 v -0.0591 q -0.0548,0.0675 -0.13077,0.10335 -0.0759,0.0337 -0.19192,0.0337 -0.17717,0 -0.27841,-0.0928 -0.0991,-0.0928 -0.0991,-0.24044 0,-0.14131 0.10967,-0.232 0.10967,-0.0907 0.34378,-0.13076 z m -0.19404,0.28051 q -0.059,0.0105 -0.0928,0.038 -0.0337,0.0253 -0.0337,0.0633 0,0.0717 0.10124,0.0717 0.0928,0 0.15607,-0.059 0.0633,-0.0591 0.0633,-0.14342 z m 0.97012,-0.038 q 0.006,0.0759 0.057,0.12233 0.0527,0.0464 0.13498,0.0464 0.0654,0 0.10335,-0.019 0.038,-0.019 0.0633,-0.057 0.0127,-0.0211 0.0253,-0.0316 0.0148,-0.0105 0.0358,-0.0105 h 0.2763 q 0.0232,0 0.0401,0.0169 0.0169,0.0148 0.0169,0.0358 0,0.0612 -0.0527,0.15396 -0.0527,0.0907 -0.17927,0.16451 -0.12444,0.0738 -0.32902,0.0738 -0.15818,0 -0.28684,-0.059 -0.12654,-0.0612 -0.20458,-0.17084 -0.0759,-0.10967 -0.0801,-0.2552 l -0.002,-0.0844 0.002,-0.0844 q 0.004,-0.14553 0.0801,-0.2552 0.078,-0.10967 0.20458,-0.16873 0.12866,-0.0612 0.28684,-0.0612 0.20247,0 0.32691,0.0717 0.12444,0.0717 0.17717,0.1624 0.0527,0.0907 0.0569,0.15396 0.002,0.0232 -0.0169,0.0401 -0.0169,0.0169 -0.0401,0.0169 h -0.2763 q -0.0211,0 -0.0358,-0.0106 -0.0127,-0.0105 -0.0253,-0.0316 -0.0253,-0.038 -0.0633,-0.057 -0.038,-0.019 -0.10335,-0.019 -0.0823,0 -0.13498,0.0464 -0.0506,0.0464 -0.057,0.12233 -0.002,0.0211 -0.002,0.0738 0,0.0527 0.002,0.0738 z m 1.2654,0.0464 q 0,0.10124 0.0907,0.10124 h 0.16872 q 0.0232,0 0.0401,0.0169 0.0169,0.0169 0.0169,0.0401 v 0.21302 q 0,0.0232 -0.0169,0.0401 -0.0169,0.0169 -0.0401,0.0169 h -0.20036 q -0.20036,0 -0.32058,-0.11178 -0.11811,-0.11178 -0.11811,-0.30371 v -0.35433 h -0.15608 q -0.0232,0 -0.0401,-0.0169 -0.0169,-0.0169 -0.0169,-0.0401 v -0.21301 q 0,-0.0232 0.0169,-0.0401 0.0169,-0.0169 0.0401,-0.0169 h 0.15608 v -0.34378 q 0,-0.0232 0.0169,-0.0401 0.0169,-0.0169 0.0401,-0.0169 h 0.26575 q 0.0232,0 0.0401,0.0169 0.0169,0.0169 0.0169,0.0401 v 0.34378 h 0.23832 q 0.0232,0 0.0401,0.0169 0.0169,0.0169 0.0169,0.0401 v 0.21301 q 0,0.0232 -0.0169,0.0401 -0.0169,0.0169 -0.0401,0.0169 h -0.23832 z m 0.70226,-0.84153 q 0,0.0232 -0.0169,0.0401 -0.0169,0.0169 -0.0401,0.0169 h -0.26575 q -0.0232,0 -0.0401,-0.0169 -0.0169,-0.0169 -0.0169,-0.0401 v -0.21302 q 0,-0.0232 0.0169,-0.0401 0.0169,-0.0169 0.0401,-0.0169 h 0.26575 q 0.0232,0 0.0401,0.0169 0.0169,0.0169 0.0169,0.0401 z m 0,1.21274 q 0,0.0232 -0.0169,0.0401 -0.0169,0.0169 -0.0401,0.0169 h -0.26575 q -0.0232,0 -0.0401,-0.0169 -0.0169,-0.0169 -0.0169,-0.0401 v -0.98284 q 0,-0.0232 0.0169,-0.0401 0.0169,-0.0169 0.0401,-0.0169 h 0.26575 q 0.0232,0 0.0401,0.0169 0.0169,0.0169 0.0169,0.0401 z m -0.0127,-0.97441 q -0.002,-0.006 -0.002,-0.0148 0,-0.0211 0.0148,-0.0359 0.0148,-0.0148 0.0359,-0.0148 h 0.26997 q 0.0464,0 0.0696,0.0506 l 0.232,0.55047 0.232,-0.55047 q 0.0232,-0.0506 0.0696,-0.0506 h 0.26996 q 0.0211,0 0.0359,0.0148 0.0148,0.0148 0.0148,0.0359 0,0.008 -0.002,0.0148 l -0.42604,0.97862 q -0.0126,0.0253 -0.0274,0.0401 -0.0148,0.0127 -0.0422,0.0127 h -0.24887 q -0.0274,0 -0.0422,-0.0127 -0.0148,-0.0148 -0.0274,-0.0401 z"
             id="path29" /><path
             d="m 107.66683,194.82169 q 0,0.0232 -0.0169,0.0401 -0.0169,0.0169 -0.0401,0.0169 h -0.078 q -0.0232,0 -0.0401,-0.0169 -0.0169,-0.0169 -0.0169,-0.0401 v -2.21456 q 0,-0.0232 0.0169,-0.0401 0.0169,-0.0169 0.0401,-0.0169 h 0.078 q 0.0232,0 0.0401,0.0169 0.0169,0.0169 0.0169,0.0401 z m 0.32685,0 q 0,0.0232 -0.0169,0.0401 -0.0169,0.0169 -0.0401,0.0169 h -0.078 q -0.0232,0 -0.0401,-0.0169 -0.0169,-0.0169 -0.0169,-0.0401 v -2.21456 q 0,-0.0232 0.0169,-0.0401 0.0169,-0.0169 0.0401,-0.0169 h 0.078 q 0.0232,0 0.0401,0.0169 0.0169,0.0169 0.0169,0.0401 z m 1.09238,-1.85812 q 0.21934,0 0.36276,0.11389 0.14553,0.11389 0.14553,0.33324 0,0.14764 -0.0696,0.25098 -0.0675,0.10335 -0.18349,0.15397 -0.11389,0.0506 -0.2552,0.0506 h -0.38808 v 0.51673 q 0,0.0232 -0.0169,0.0401 -0.0169,0.0169 -0.0401,0.0169 h -0.0865 q -0.0232,0 -0.0401,-0.0169 -0.0169,-0.0169 -0.0169,-0.0401 v -1.36248 q 0,-0.0232 0.0169,-0.0401 0.0169,-0.0169 0.0401,-0.0169 z m -0.0106,0.71288 q 0.15397,0 0.23622,-0.0654 0.0823,-0.0675 0.0823,-0.20037 0,-0.25731 -0.31848,-0.25731 h -0.37753 v 0.52306 z m 1.52482,0.116 q 0.004,0.0464 0.004,0.10123 0,0.0506 -0.004,0.097 -0.019,0.21513 -0.14975,0.34379 -0.12866,0.12654 -0.35011,0.12654 -0.22146,0 -0.35222,-0.12654 -0.12866,-0.12866 -0.14764,-0.34379 -0.002,-0.0232 -0.002,-0.097 0,-0.078 0.002,-0.10123 0.0169,-0.21513 0.14764,-0.34168 0.13076,-0.12865 0.35222,-0.12865 0.22145,0 0.35222,0.12865 0.13076,0.12655 0.14764,0.34168 z m -0.19193,0.0105 q -0.0127,-0.13498 -0.0907,-0.21723 -0.0759,-0.0823 -0.21724,-0.0823 -0.14131,0 -0.21935,0.0823 -0.0759,0.0823 -0.0886,0.21723 -0.002,0.0253 -0.002,0.0907 0,0.0633 0.002,0.0865 0.0126,0.13498 0.0886,0.21723 0.078,0.0823 0.21935,0.0823 0.14131,0 0.21724,-0.0823 0.078,-0.0823 0.0907,-0.21723 0.004,-0.0464 0.004,-0.0865 0,-0.0401 -0.004,-0.0907 z m 0.84357,-0.45978 q 0.0232,0 0.0401,0.0169 0.0169,0.0169 0.0169,0.0401 v 0.0675 q 0,0.0232 -0.0169,0.0401 -0.0169,0.0169 -0.0401,0.0169 h -0.12233 q -0.11811,0 -0.18138,0.0633 -0.0612,0.0612 -0.0612,0.17928 v 0.61586 q 0,0.0232 -0.0169,0.0401 -0.0169,0.0169 -0.0401,0.0169 h -0.078 q -0.0232,0 -0.0401,-0.0169 -0.0169,-0.0169 -0.0169,-0.0401 v -0.98284 q 0,-0.0232 0.0169,-0.0401 0.0169,-0.0169 0.0401,-0.0169 h 0.078 q 0.0232,0 0.0401,0.0169 0.0169,0.0169 0.0169,0.0401 v 0.0654 q 0.0422,-0.0633 0.10123,-0.0928 0.0591,-0.0295 0.15397,-0.0295 z m 0.35426,0.72764 q 0,0.0907 0.0359,0.1392 0.038,0.0485 0.14131,0.0485 h 0.11178 q 0.0232,0 0.0401,0.0169 0.0169,0.0169 0.0169,0.0401 v 0.0675 q 0,0.0232 -0.0169,0.0401 -0.0169,0.0169 -0.0401,0.0169 h -0.13287 q -0.17928,0 -0.26364,-0.0928 -0.0844,-0.0949 -0.0844,-0.27629 v -0.54626 h -0.15608 q -0.0232,0 -0.0401,-0.0169 -0.0169,-0.0169 -0.0169,-0.0401 v -0.0675 q 0,-0.0232 0.0169,-0.0401 0.0169,-0.0169 0.0401,-0.0169 h 0.15608 v -0.34378 q 0,-0.0232 0.0169,-0.0401 0.0169,-0.0169 0.0401,-0.0169 h 0.078 q 0.0232,0 0.0401,0.0169 0.0169,0.0169 0.0169,0.0401 v 0.34378 h 0.26786 q 0.0232,0 0.0401,0.0169 0.0169,0.0169 0.0169,0.0401 v 0.0675 q 0,0.0232 -0.0169,0.0401 -0.0169,0.0169 -0.0401,0.0169 h -0.26786 z m 1.03551,-0.3248 v -0.0274 q 0,-0.10335 -0.0696,-0.15818 -0.0675,-0.057 -0.17717,-0.057 -0.0844,0 -0.13287,0.0295 -0.0464,0.0274 -0.0886,0.0844 -0.0127,0.0169 -0.0274,0.0232 -0.0148,0.006 -0.0401,0.006 h -0.0633 q -0.0232,0 -0.0422,-0.0169 -0.0169,-0.0169 -0.0148,-0.0401 0.006,-0.0633 0.0612,-0.12443 0.057,-0.0633 0.14975,-0.10335 0.0928,-0.0401 0.19825,-0.0401 0.19615,0 0.31637,0.10967 0.12232,0.10967 0.12232,0.30793 v 0.64328 q 0,0.0232 -0.0169,0.0401 -0.0169,0.0169 -0.0401,0.0169 h -0.078 q -0.0232,0 -0.0401,-0.0169 -0.0169,-0.0169 -0.0169,-0.0401 v -0.0865 q -0.0337,0.0759 -0.14342,0.12022 -0.10968,0.0443 -0.21935,0.0443 -0.10756,0 -0.19193,-0.038 -0.0844,-0.0401 -0.13076,-0.10757 -0.0443,-0.0675 -0.0443,-0.15185 0,-0.15818 0.11811,-0.24677 0.11811,-0.0907 0.31425,-0.12232 z m 0,0.16873 -0.24888,0.0401 q -0.13709,0.0211 -0.21302,0.0696 -0.0759,0.0464 -0.0759,0.11811 0,0.0527 0.0485,0.0949 0.0485,0.0422 0.14763,0.0422 0.15186,0 0.24677,-0.0865 0.0949,-0.0865 0.0949,-0.22568 z m 1.32444,-0.0928 q 0.002,0.0211 0.002,0.0675 0,0.0485 -0.002,0.0696 -0.006,0.15185 -0.0717,0.26574 -0.0633,0.11389 -0.17084,0.17506 -0.10546,0.0612 -0.23622,0.0612 -0.21935,0 -0.32691,-0.14342 v 0.0654 q 0,0.0232 -0.0169,0.0401 -0.0169,0.0169 -0.0401,0.0169 h -0.078 q -0.0232,0 -0.0401,-0.0169 -0.0169,-0.0169 -0.0169,-0.0401 v -1.38357 q 0,-0.0232 0.0169,-0.0401 0.0169,-0.0169 0.0401,-0.0169 h 0.078 q 0.0232,0 0.0401,0.0169 0.0169,0.0169 0.0169,0.0401 v 0.46611 q 0.0464,-0.0612 0.12654,-0.10124 0.0823,-0.0422 0.20037,-0.0422 0.13287,0 0.23833,0.0612 0.10545,0.0612 0.16873,0.17506 0.0654,0.11178 0.0717,0.26364 z m -0.49985,0.45767 q 0.13709,0 0.21724,-0.0865 0.0801,-0.0886 0.0907,-0.24255 0.002,-0.0211 0.002,-0.059 0,-0.17928 -0.0823,-0.28262 -0.0801,-0.10546 -0.22778,-0.10546 -0.13288,0 -0.21302,0.0823 -0.0802,0.0823 -0.0928,0.22989 -0.002,0.0211 -0.002,0.0822 0,0.0633 0.002,0.0844 0.0105,0.13709 0.0928,0.21723 0.0844,0.0802 0.21302,0.0802 z m 0.78241,0.10335 q 0,0.0232 -0.0169,0.0401 -0.0169,0.0169 -0.0401,0.0169 h -0.078 q -0.0232,0 -0.0401,-0.0169 -0.0169,-0.0169 -0.0169,-0.0401 v -1.38357 q 0,-0.0232 0.0169,-0.0401 0.0169,-0.0169 0.0401,-0.0169 h 0.078 q 0.0232,0 0.0401,0.0169 0.0169,0.0169 0.0169,0.0401 z m 0.57571,-1.06088 q 0.22568,0 0.35644,0.14342 0.13077,0.14342 0.13077,0.39018 v 0.057 q 0,0.0232 -0.0169,0.0401 -0.0169,0.0169 -0.0401,0.0169 h -0.72553 v 0.0127 q 0.004,0.1392 0.0844,0.21934 0.0823,0.078 0.21091,0.078 0.10546,0 0.1624,-0.0274 0.0591,-0.0274 0.10546,-0.078 0.0169,-0.0169 0.0295,-0.0232 0.0148,-0.006 0.038,-0.006 h 0.0633 q 0.0253,0 0.0422,0.0169 0.0169,0.0169 0.0148,0.0401 -0.008,0.057 -0.0633,0.11811 -0.0527,0.0591 -0.15397,0.10124 -0.0991,0.0401 -0.23833,0.0401 -0.13498,0 -0.24043,-0.0612 -0.10546,-0.0633 -0.16873,-0.17295 -0.0612,-0.10967 -0.0738,-0.24676 -0.004,-0.0633 -0.004,-0.097 0,-0.0337 0.004,-0.097 0.0126,-0.13076 0.0738,-0.23622 0.0633,-0.10545 0.16662,-0.16662 0.10545,-0.0612 0.24254,-0.0612 z m 0.29739,0.47033 v -0.006 q 0,-0.12865 -0.0823,-0.20458 -0.0801,-0.078 -0.21513,-0.078 -0.12232,0 -0.2088,0.078 -0.0844,0.078 -0.0865,0.20458 v 0.006 z m 1.8158,0.48087 q -0.0865,0 -0.15186,-0.0274 -0.0633,-0.0295 -0.097,-0.0696 -0.0316,0.0401 -0.0569,0.0633 -0.0232,0.0211 -0.0759,0.038 -0.0506,0.0169 -0.13709,0.0169 -0.16451,0 -0.25309,-0.12022 -0.0886,-0.12232 -0.0886,-0.31003 0,-0.18771 0.0886,-0.31004 0.0886,-0.12233 0.25309,-0.12233 0.13287,0 0.21091,0.0928 v -0.019 q 0,-0.0232 0.0169,-0.0401 0.0169,-0.0169 0.0401,-0.0169 h 0.0675 q 0.0232,0 0.0401,0.0169 0.0169,0.0169 0.0169,0.0401 v 0.44924 q 0,0.0675 0.0338,0.10756 0.0337,0.0401 0.0928,0.0401 0.0675,0 0.097,-0.0443 0.0316,-0.0443 0.0337,-0.10123 0.004,-0.038 0.004,-0.12022 0,-0.0654 -0.006,-0.13709 -0.0506,-0.49986 -0.61375,-0.49986 -0.14552,0 -0.26996,0.057 -0.12444,0.0569 -0.20669,0.16872 -0.0823,0.11179 -0.097,0.27419 -0.006,0.0569 -0.006,0.18138 0,0.10335 0.006,0.15818 0.0148,0.16029 0.097,0.27208 0.0822,0.11178 0.20669,0.16662 0.12444,0.0569 0.26996,0.0569 0.16029,0 0.24888,-0.0274 0.0886,-0.0253 0.17505,-0.0844 0.006,-0.004 0.0211,-0.0127 0.0148,-0.0105 0.0253,-0.0148 0.0127,-0.004 0.0274,-0.004 h 0.0928 q 0.0253,0 0.0422,0.0169 0.0169,0.0169 0.0148,0.0422 0,0.0169 -0.0148,0.0316 -0.10123,0.10335 -0.25309,0.1624 -0.14974,0.0612 -0.37964,0.0612 -0.19403,0 -0.36065,-0.078 -0.16662,-0.078 -0.27208,-0.22567 -0.10545,-0.14975 -0.12232,-0.35222 -0.004,-0.0717 -0.004,-0.1624 0,-0.11811 0.004,-0.19826 0.0126,-0.20036 0.11811,-0.35011 0.10756,-0.14974 0.27418,-0.22989 0.16873,-0.0802 0.36276,-0.0802 0.35433,0 0.56313,0.17295 0.21091,0.17295 0.22989,0.4872 0.004,0.0886 0.004,0.13498 0,0.10124 -0.004,0.14342 -0.008,0.15186 -0.0949,0.22989 -0.0844,0.0759 -0.21302,0.0759 z m -0.49564,-0.14974 q 0.10334,0 0.14553,-0.0654 0.0422,-0.0675 0.0422,-0.19403 0,-0.12655 -0.0422,-0.19404 -0.0422,-0.0675 -0.14553,-0.0675 -0.0949,0 -0.14131,0.0801 -0.0443,0.078 -0.0443,0.18139 0,0.10334 0.0443,0.18138 0.0464,0.078 0.14131,0.078 z m 2.26082,-0.20037 q 0,0.24466 -0.14131,0.39229 -0.14131,0.14553 -0.40073,0.14553 -0.16451,0 -0.28683,-0.0633 -0.12233,-0.0633 -0.18771,-0.16662 -0.0654,-0.10545 -0.0696,-0.22567 0,-0.019 0.0126,-0.0316 0.0148,-0.0148 0.0337,-0.0148 h 0.10756 q 0.0358,0 0.0464,0.0464 0.0232,0.11811 0.10545,0.19192 0.0844,0.0738 0.23833,0.0738 0.17928,0 0.25942,-0.0949 0.0823,-0.0949 0.0823,-0.27629 v -0.74662 h -0.72764 q -0.0232,0 -0.0401,-0.0169 -0.0169,-0.0169 -0.0169,-0.0401 v -0.0759 q 0,-0.0232 0.0169,-0.0401 0.0169,-0.0169 0.0401,-0.0169 h 0.87106 q 0.0232,0 0.0401,0.0169 0.0169,0.0169 0.0169,0.0401 z m 0.80561,-0.17716 v -0.0274 q 0,-0.10335 -0.0696,-0.15818 -0.0675,-0.057 -0.17716,-0.057 -0.0844,0 -0.13287,0.0295 -0.0464,0.0274 -0.0886,0.0844 -0.0127,0.0169 -0.0274,0.0232 -0.0148,0.006 -0.0401,0.006 h -0.0633 q -0.0232,0 -0.0422,-0.0169 -0.0169,-0.0169 -0.0148,-0.0401 0.006,-0.0633 0.0612,-0.12443 0.0569,-0.0633 0.14974,-0.10335 0.0928,-0.0401 0.19826,-0.0401 0.19615,0 0.31636,0.10967 0.12233,0.10967 0.12233,0.30793 v 0.64328 q 0,0.0232 -0.0169,0.0401 -0.0169,0.0169 -0.0401,0.0169 h -0.078 q -0.0232,0 -0.0401,-0.0169 -0.0169,-0.0169 -0.0169,-0.0401 v -0.0865 q -0.0337,0.0759 -0.14341,0.12022 -0.10968,0.0443 -0.21935,0.0443 -0.10757,0 -0.19193,-0.038 -0.0844,-0.0401 -0.13076,-0.10757 -0.0443,-0.0675 -0.0443,-0.15185 0,-0.15818 0.11811,-0.24677 0.1181,-0.0907 0.31425,-0.12232 z m 0,0.16873 -0.24887,0.0401 q -0.13709,0.0211 -0.21302,0.0696 -0.0759,0.0464 -0.0759,0.11811 0,0.0527 0.0485,0.0949 0.0485,0.0422 0.14764,0.0422 0.15186,0 0.24676,-0.0865 0.0949,-0.0865 0.0949,-0.22568 z m 0.79928,0.52516 q 0.0422,0 0.0633,-0.0527 l 0.41971,-0.97862 q 0.002,-0.006 0.002,-0.0148 0,-0.0211 -0.0148,-0.0359 -0.0148,-0.0148 -0.0359,-0.0148 h -0.0865 q -0.0422,0 -0.0612,0.0506 l -0.32691,0.7656 -0.32691,-0.7656 q -0.019,-0.0506 -0.0696,-0.0506 h -0.078 q -0.0211,0 -0.0359,0.0148 -0.0148,0.0148 -0.0148,0.0359 0,0.008 0.002,0.0148 l 0.41972,0.97862 q 0.0211,0.0527 0.0654,0.0527 z m 1.18736,-0.69389 v -0.0274 q 0,-0.10335 -0.0696,-0.15818 -0.0675,-0.057 -0.17716,-0.057 -0.0844,0 -0.13288,0.0295 -0.0464,0.0274 -0.0886,0.0844 -0.0126,0.0169 -0.0274,0.0232 -0.0148,0.006 -0.0401,0.006 h -0.0633 q -0.0232,0 -0.0422,-0.0169 -0.0169,-0.0169 -0.0148,-0.0401 0.006,-0.0633 0.0612,-0.12443 0.0569,-0.0633 0.14974,-0.10335 0.0928,-0.0401 0.19826,-0.0401 0.19614,0 0.31636,0.10967 0.12233,0.10967 0.12233,0.30793 v 0.64328 q 0,0.0232 -0.0169,0.0401 -0.0169,0.0169 -0.0401,0.0169 h -0.078 q -0.0232,0 -0.0401,-0.0169 -0.0169,-0.0169 -0.0169,-0.0401 v -0.0865 q -0.0337,0.0759 -0.14342,0.12022 -0.10967,0.0443 -0.21934,0.0443 -0.10757,0 -0.19193,-0.038 -0.0844,-0.0401 -0.13077,-0.10757 -0.0443,-0.0675 -0.0443,-0.15185 0,-0.15818 0.11811,-0.24677 0.11811,-0.0907 0.31426,-0.12232 z m 0,0.16873 -0.24887,0.0401 q -0.13709,0.0211 -0.21302,0.0696 -0.0759,0.0464 -0.0759,0.11811 0,0.0527 0.0485,0.0949 0.0485,0.0422 0.14764,0.0422 0.15185,0 0.24676,-0.0865 0.0949,-0.0865 0.0949,-0.22568 z m 0.59048,0.038 q -0.30792,-0.0654 -0.30792,-0.31426 0,-0.0865 0.0464,-0.15818 0.0464,-0.0717 0.13709,-0.11389 0.0928,-0.0443 0.22567,-0.0443 0.13077,0 0.22567,0.038 0.0949,0.038 0.14342,0.0949 0.0506,0.057 0.0506,0.10967 0,0.0211 -0.0169,0.038 -0.0169,0.0148 -0.0401,0.0148 h -0.0696 q -0.0401,0 -0.0633,-0.0295 -0.0654,-0.0844 -0.22989,-0.0844 -0.097,0 -0.15818,0.0359 -0.0591,0.0359 -0.0591,0.0991 0,0.0527 0.0295,0.0802 0.0295,0.0274 0.0886,0.0443 0.0591,0.0169 0.2088,0.0506 0.18561,0.0401 0.26364,0.12233 0.078,0.0823 0.078,0.20036 0,0.0865 -0.0548,0.16029 -0.0527,0.0738 -0.15396,0.12022 -0.0991,0.0443 -0.232,0.0443 -0.13077,0 -0.232,-0.0401 -0.0991,-0.0422 -0.15397,-0.10124 -0.0548,-0.059 -0.0548,-0.11178 0,-0.0211 0.0169,-0.0359 0.0169,-0.0169 0.0401,-0.0169 h 0.0759 q 0.019,0 0.0337,0.004 0.0148,0.004 0.0274,0.0232 0.0696,0.097 0.24677,0.097 0.0991,0 0.17294,-0.0401 0.0759,-0.0422 0.0759,-0.10335 0,-0.0506 -0.038,-0.0801 -0.0359,-0.0316 -0.10546,-0.0506 -0.0696,-0.0211 -0.21724,-0.0527 z m 1.07347,0.32691 q 0.21091,0 0.28473,-0.16451 0.0148,-0.0316 0.0295,-0.0443 0.0148,-0.0127 0.0401,-0.0127 h 0.0633 q 0.0232,0 0.0401,0.0169 0.0169,0.0148 0.0169,0.0358 0,0.0717 -0.057,0.15397 -0.0569,0.0822 -0.16451,0.1392 -0.10756,0.0569 -0.25309,0.0569 -0.14975,0 -0.25942,-0.0633 -0.10967,-0.0633 -0.16873,-0.17295 -0.059,-0.11178 -0.0654,-0.24887 -0.002,-0.0253 -0.002,-0.097 0,-0.0506 0.002,-0.0717 0.019,-0.21513 0.14553,-0.35011 0.12654,-0.13498 0.348,-0.13498 0.14553,0 0.25098,0.0569 0.10757,0.0548 0.1624,0.1371 0.057,0.0801 0.0612,0.15185 0.002,0.0232 -0.0169,0.0401 -0.0169,0.0169 -0.0401,0.0169 h -0.0633 q -0.0253,0 -0.0401,-0.0127 -0.0148,-0.0127 -0.0295,-0.0443 -0.0738,-0.16451 -0.28473,-0.16451 -0.116,0 -0.20247,0.078 -0.0865,0.078 -0.0991,0.23622 -0.002,0.0232 -0.002,0.0759 0,0.0485 0.002,0.0717 0.0148,0.15819 0.0991,0.23622 0.0865,0.078 0.20247,0.078 z m 1.11143,-0.93644 q 0.0232,0 0.0401,0.0169 0.0169,0.0169 0.0169,0.0401 v 0.0675 q 0,0.0232 -0.0169,0.0401 -0.0169,0.0169 -0.0401,0.0169 h -0.12233 q -0.11811,0 -0.18138,0.0633 -0.0612,0.0612 -0.0612,0.17928 v 0.61586 q 0,0.0232 -0.0169,0.0401 -0.0169,0.0169 -0.0401,0.0169 h -0.078 q -0.0232,0 -0.0401,-0.0169 -0.0169,-0.0169 -0.0169,-0.0401 v -0.98284 q 0,-0.0232 0.0169,-0.0401 0.0169,-0.0169 0.0401,-0.0169 h 0.078 q 0.0232,0 0.0401,0.0169 0.0169,0.0169 0.0169,0.0401 v 0.0654 q 0.0422,-0.0633 0.10123,-0.0928 0.0591,-0.0295 0.15397,-0.0295 z m 0.28045,-0.22357 q 0,0.0232 -0.0169,0.0401 -0.0169,0.0169 -0.0401,0.0169 h -0.12022 q -0.0232,0 -0.0401,-0.0169 -0.0169,-0.0169 -0.0169,-0.0401 v -0.12021 q 0,-0.0232 0.0169,-0.0401 0.0169,-0.0169 0.0401,-0.0169 h 0.12022 q 0.0232,0 0.0401,0.0169 0.0169,0.0169 0.0169,0.0401 z m -0.0211,1.26336 q 0,0.0232 -0.0169,0.0401 -0.0169,0.0169 -0.0401,0.0169 h -0.078 q -0.0232,0 -0.0401,-0.0169 -0.0169,-0.0169 -0.0169,-0.0401 v -0.98284 q 0,-0.0232 0.0169,-0.0401 0.0169,-0.0169 0.0401,-0.0169 h 0.078 q 0.0232,0 0.0401,0.0169 0.0169,0.0169 0.0169,0.0401 z m 0.33527,0.40072 q 0,0.0232 -0.0169,0.0401 -0.0169,0.0169 -0.0401,0.0169 h -0.078 q -0.0232,0 -0.0401,-0.0169 -0.0169,-0.0169 -0.0169,-0.0401 v -1.38356 q 0,-0.0232 0.0169,-0.0401 0.0169,-0.0169 0.0401,-0.0169 h 0.078 q 0.0232,0 0.0401,0.0169 0.0169,0.0169 0.0169,0.0401 v 0.0654 q 0.10757,-0.14342 0.32691,-0.14342 0.13077,0 0.23622,0.0612 0.10757,0.0612 0.17084,0.17506 0.0654,0.11389 0.0717,0.26574 0.002,0.0211 0.002,0.0675 0,0.0485 -0.002,0.0696 -0.006,0.15185 -0.0717,0.26574 -0.0633,0.11178 -0.16873,0.17295 -0.10545,0.0612 -0.23833,0.0612 -0.11811,0 -0.20036,-0.0401 -0.0802,-0.0422 -0.12655,-0.10335 z m 0,-0.81622 q 0.006,0.14764 0.0886,0.22989 0.0823,0.0823 0.21723,0.0823 0.13709,0 0.21724,-0.0886 0.0823,-0.0886 0.0907,-0.24044 0.002,-0.0211 0.002,-0.059 0,-0.038 -0.002,-0.0591 -0.008,-0.15185 -0.0907,-0.24044 -0.0802,-0.0886 -0.21724,-0.0886 -0.13076,0 -0.21513,0.0823 -0.0844,0.0801 -0.0907,0.21512 l -0.002,0.0823 z m 1.18314,0.10335 q 0,0.0907 0.0359,0.1392 0.038,0.0485 0.14131,0.0485 h 0.11178 q 0.0232,0 0.0401,0.0169 0.0169,0.0169 0.0169,0.0401 v 0.0675 q 0,0.0232 -0.0169,0.0401 -0.0169,0.0169 -0.0401,0.0169 h -0.13287 q -0.17928,0 -0.26364,-0.0928 -0.0844,-0.0949 -0.0844,-0.27629 v -0.54626 h -0.15607 q -0.0232,0 -0.0401,-0.0169 -0.0169,-0.0169 -0.0169,-0.0401 v -0.0675 q 0,-0.0232 0.0169,-0.0401 0.0169,-0.0169 0.0401,-0.0169 h 0.15607 v -0.34378 q 0,-0.0232 0.0169,-0.0401 0.0169,-0.0169 0.0401,-0.0169 h 0.078 q 0.0232,0 0.0401,0.0169 0.0169,0.0169 0.0169,0.0401 v 0.34378 h 0.26786 q 0.0232,0 0.0401,0.0169 0.0169,0.0169 0.0169,0.0401 v 0.0675 q 0,0.0232 -0.0169,0.0401 -0.0169,0.0169 -0.0401,0.0169 h -0.26786 z m 1.64286,-1.10728 q 0.0232,0 0.0401,0.0169 0.0169,0.0169 0.0169,0.0401 v 0.0759 q 0,0.0232 -0.0169,0.0401 -0.0169,0.0169 -0.0401,0.0169 h -0.6939 v 0.4872 h 0.65172 q 0.0232,0 0.0401,0.0169 0.0169,0.0169 0.0169,0.0401 v 0.0759 q 0,0.0232 -0.0169,0.0401 -0.0169,0.0169 -0.0401,0.0169 h -0.65172 v 0.55259 q 0,0.0232 -0.0169,0.0401 -0.0169,0.0169 -0.0401,0.0169 h -0.0865 q -0.0232,0 -0.0401,-0.0169 -0.0169,-0.0169 -0.0169,-0.0401 v -1.36248 q 0,-0.0232 0.0169,-0.0401 0.0169,-0.0169 0.0401,-0.0169 z m 0.68328,0.37964 q 0.0232,0 0.0401,0.0169 0.0169,0.0169 0.0169,0.0401 v 0.0675 q 0,0.0232 -0.0169,0.0401 -0.0169,0.0169 -0.0401,0.0169 h -0.12233 q -0.11811,0 -0.18138,0.0633 -0.0612,0.0612 -0.0612,0.17928 v 0.61586 q 0,0.0232 -0.0169,0.0401 -0.0169,0.0169 -0.0401,0.0169 h -0.078 q -0.0232,0 -0.0401,-0.0169 -0.0169,-0.0169 -0.0169,-0.0401 v -0.98284 q 0,-0.0232 0.0169,-0.0401 0.0169,-0.0169 0.0401,-0.0169 h 0.078 q 0.0232,0 0.0401,0.0169 0.0169,0.0169 0.0169,0.0401 v 0.0654 q 0.0422,-0.0633 0.10124,-0.0928 0.0591,-0.0295 0.15397,-0.0295 z m 0.71914,0.40284 v -0.0274 q 0,-0.10335 -0.0696,-0.15818 -0.0675,-0.057 -0.17717,-0.057 -0.0844,0 -0.13287,0.0295 -0.0464,0.0274 -0.0886,0.0844 -0.0127,0.0169 -0.0274,0.0232 -0.0148,0.006 -0.0401,0.006 h -0.0633 q -0.0232,0 -0.0422,-0.0169 -0.0169,-0.0169 -0.0148,-0.0401 0.006,-0.0633 0.0612,-0.12443 0.057,-0.0633 0.14975,-0.10335 0.0928,-0.0401 0.19825,-0.0401 0.19615,0 0.31637,0.10967 0.12233,0.10967 0.12233,0.30793 v 0.64328 q 0,0.0232 -0.0169,0.0401 -0.0169,0.0169 -0.0401,0.0169 h -0.078 q -0.0232,0 -0.0401,-0.0169 -0.0169,-0.0169 -0.0169,-0.0401 v -0.0865 q -0.0337,0.0759 -0.14342,0.12022 -0.10967,0.0443 -0.21935,0.0443 -0.10756,0 -0.19193,-0.038 -0.0844,-0.0401 -0.13076,-0.10757 -0.0443,-0.0675 -0.0443,-0.15185 0,-0.15818 0.11811,-0.24677 0.11811,-0.0907 0.31425,-0.12232 z m 0,0.16873 -0.24888,0.0401 q -0.13709,0.0211 -0.21301,0.0696 -0.0759,0.0464 -0.0759,0.11811 0,0.0527 0.0485,0.0949 0.0485,0.0422 0.14763,0.0422 0.15186,0 0.24677,-0.0865 0.0949,-0.0865 0.0949,-0.22568 z m 0.51877,-0.44924 q 0.0506,-0.0654 0.11389,-0.10335 0.0633,-0.0401 0.16873,-0.0401 0.24676,0 0.34589,0.18349 0.0612,-0.0886 0.1392,-0.13498 0.078,-0.0485 0.20458,-0.0485 0.2067,0 0.30582,0.12444 0.10124,0.12443 0.10124,0.35221 v 0.58423 q 0,0.0232 -0.0169,0.0401 -0.0169,0.0169 -0.0401,0.0169 h -0.078 q -0.0232,0 -0.0401,-0.0169 -0.0169,-0.0169 -0.0169,-0.0401 v -0.56313 q 0,-0.31637 -0.24887,-0.31637 -0.11389,0 -0.18139,0.0759 -0.0675,0.0759 -0.0675,0.22567 v 0.5779 q 0,0.0232 -0.0169,0.0401 -0.0169,0.0169 -0.0401,0.0169 h -0.078 q -0.0232,0 -0.0401,-0.0169 -0.0169,-0.0169 -0.0169,-0.0401 v -0.56313 q 0,-0.31637 -0.24888,-0.31637 -0.11389,0 -0.18138,0.0759 -0.0675,0.0759 -0.0675,0.22567 v 0.5779 q 0,0.0232 -0.0169,0.0401 -0.0169,0.0169 -0.0401,0.0169 h -0.078 q -0.0232,0 -0.0401,-0.0169 -0.0169,-0.0169 -0.0169,-0.0401 v -0.98284 q 0,-0.0232 0.0169,-0.0401 0.0169,-0.0169 0.0401,-0.0169 h 0.078 q 0.0232,0 0.0401,0.0169 0.0169,0.0169 0.0169,0.0401 z m 1.94452,-0.14342 q 0.22568,0 0.35644,0.14342 0.13076,0.14342 0.13076,0.39018 v 0.057 q 0,0.0232 -0.0169,0.0401 -0.0169,0.0169 -0.0401,0.0169 h -0.72553 v 0.0127 q 0.004,0.1392 0.0844,0.21934 0.0823,0.078 0.21091,0.078 0.10546,0 0.1624,-0.0274 0.0591,-0.0274 0.10546,-0.078 0.0169,-0.0169 0.0295,-0.0232 0.0148,-0.006 0.038,-0.006 h 0.0633 q 0.0253,0 0.0422,0.0169 0.0169,0.0169 0.0148,0.0401 -0.008,0.057 -0.0633,0.11811 -0.0527,0.0591 -0.15396,0.10124 -0.0991,0.0401 -0.23833,0.0401 -0.13498,0 -0.24044,-0.0612 -0.10545,-0.0633 -0.16872,-0.17295 -0.0612,-0.10967 -0.0738,-0.24676 -0.004,-0.0633 -0.004,-0.097 0,-0.0337 0.004,-0.097 0.0126,-0.13076 0.0738,-0.23622 0.0633,-0.10545 0.16662,-0.16662 0.10545,-0.0612 0.24254,-0.0612 z m 0.29738,0.47033 v -0.006 q 0,-0.12865 -0.0823,-0.20458 -0.0802,-0.078 -0.21513,-0.078 -0.12233,0 -0.2088,0.078 -0.0844,0.078 -0.0865,0.20458 v 0.006 z m 1.53958,-0.39862 q 0.019,-0.0506 0.0717,-0.0506 h 0.0696 q 0.0211,0 0.0359,0.0148 0.0148,0.0148 0.0148,0.0359 l -0.002,0.0169 -0.32269,0.97019 q -0.019,0.0591 -0.0633,0.0591 h -0.0654 q -0.0253,0 -0.0401,-0.0148 -0.0148,-0.0169 -0.0253,-0.0443 l -0.25098,-0.70022 -0.25099,0.70022 q -0.0105,0.0274 -0.0253,0.0443 -0.0148,0.0148 -0.0401,0.0148 h -0.0654 q -0.0443,0 -0.0633,-0.0591 l -0.3227,-0.97019 -0.002,-0.0169 q 0,-0.0211 0.0148,-0.0359 0.0148,-0.0148 0.0359,-0.0148 h 0.0696 q 0.0527,0 0.0717,0.0506 l 0.23622,0.70444 0.25309,-0.70444 q 0.019,-0.0506 0.0654,-0.0506 h 0.0464 q 0.0464,0 0.0654,0.0506 l 0.25309,0.70444 z m 1.20423,0.39862 q 0.004,0.0464 0.004,0.10123 0,0.0506 -0.004,0.097 -0.019,0.21513 -0.14974,0.34379 -0.12866,0.12654 -0.35011,0.12654 -0.22146,0 -0.35222,-0.12654 -0.12866,-0.12866 -0.14764,-0.34379 -0.002,-0.0232 -0.002,-0.097 0,-0.078 0.002,-0.10123 0.0169,-0.21513 0.14764,-0.34168 0.13076,-0.12865 0.35222,-0.12865 0.22145,0 0.35222,0.12865 0.13076,0.12655 0.14763,0.34168 z m -0.19192,0.0105 q -0.0127,-0.13498 -0.0907,-0.21723 -0.0759,-0.0823 -0.21724,-0.0823 -0.14131,0 -0.21935,0.0823 -0.0759,0.0823 -0.0886,0.21723 -0.002,0.0253 -0.002,0.0907 0,0.0633 0.002,0.0865 0.0127,0.13498 0.0886,0.21723 0.078,0.0823 0.21935,0.0823 0.14131,0 0.21724,-0.0823 0.078,-0.0823 0.0907,-0.21723 0.004,-0.0464 0.004,-0.0865 0,-0.0401 -0.004,-0.0907 z m 0.84357,-0.45978 q 0.0232,0 0.0401,0.0169 0.0169,0.0169 0.0169,0.0401 v 0.0675 q 0,0.0232 -0.0169,0.0401 -0.0169,0.0169 -0.0401,0.0169 h -0.12233 q -0.11811,0 -0.18138,0.0633 -0.0612,0.0612 -0.0612,0.17928 v 0.61586 q 0,0.0232 -0.0169,0.0401 -0.0169,0.0169 -0.0401,0.0169 h -0.078 q -0.0232,0 -0.0401,-0.0169 -0.0169,-0.0169 -0.0169,-0.0401 v -0.98284 q 0,-0.0232 0.0169,-0.0401 0.0169,-0.0169 0.0401,-0.0169 h 0.078 q 0.0232,0 0.0401,0.0169 0.0169,0.0169 0.0169,0.0401 v 0.0654 q 0.0422,-0.0633 0.10123,-0.0928 0.0591,-0.0295 0.15397,-0.0295 z m 0.25936,1.03979 q 0,0.0232 -0.0169,0.0401 -0.0169,0.0169 -0.0401,0.0169 h -0.078 q -0.0232,0 -0.0401,-0.0169 -0.0169,-0.0169 -0.0169,-0.0401 v -1.38357 q 0,-0.0232 0.0169,-0.0401 0.0169,-0.0169 0.0401,-0.0169 h 0.078 q 0.0232,0 0.0401,0.0169 0.0169,0.0169 0.0169,0.0401 v 0.69811 l 0.41127,-0.31848 q 0.0232,-0.0169 0.0401,-0.0253 0.0169,-0.0105 0.0422,-0.0105 h 0.10546 q 0.0211,0 0.0359,0.0148 0.0148,0.0148 0.0148,0.0359 0,0.0232 -0.0232,0.0422 l -0.5083,0.39651 0.56103,0.51673 q 0.0211,0.0211 0.0211,0.0401 0,0.0211 -0.0148,0.0359 -0.0148,0.0148 -0.0358,0.0148 h -0.0991 q -0.0443,0 -0.0865,-0.0359 l -0.464,-0.42815 z m 0.88575,-0.19826 q 0.0232,0 0.0401,0.0169 0.0169,0.0169 0.0169,0.0401 v 0.14131 q 0,0.0232 -0.0169,0.0401 -0.0169,0.0169 -0.0401,0.0169 h -0.14131 q -0.0232,0 -0.0401,-0.0169 -0.0169,-0.0169 -0.0169,-0.0401 v -0.14131 q 0,-0.0232 0.0169,-0.0401 0.0169,-0.0169 0.0401,-0.0169 z"
             id="path30" /></g><path
           d="m 141.75466,194.46229 q 0.19906,0 0.34383,-0.14476 0.14477,-0.14478 0.14477,-0.34384 v -15.94292 q 0,-0.19907 -0.14477,-0.34385 -0.14477,-0.14476 -0.34383,-0.14476 h -3.49263 q -0.19906,0 -0.34383,0.14476 -0.14477,0.14478 -0.14477,0.34385 v 0.57907 q 0,0.19906 0.14477,0.34383 0.14477,0.14477 0.34383,0.14477 h 2.33445 V 192.906 h -2.33445 q -0.19906,0 -0.34383,0.14477 -0.14477,0.14477 -0.14477,0.34383 v 0.57909 q 0,0.19906 0.14477,0.34384 0.14477,0.14476 0.34383,0.14476 z"
           id="path31"
           style="font-size:19.0385px;font-family:Rubik;-inkscape-font-specification:Rubik;letter-spacing:-1.56175px;fill:#493083;stroke-width:0.212067"
           aria-label="[" /></g><path
         d="m 64.765556,94.490356 -13.38678,14.728304 c -0.20064,0.30206 -0.963058,1.36407 -0.406693,0.85524 5.948525,-5.44026 14.661447,0.74896 16.361275,-3.34915 z m -13.38678,14.728304 c 0.09113,-0.1372 0.0947,-0.15657 -0.243396,0.26768 z"
         style="fill:#cbba00;stroke-width:0.313957;filter:url(#filter48)"
         id="path50" /></g></g></svg>
